<?xml version="1.0" encoding="utf-8"?>
<!-- Generator: Adobe Illustrator 24.1.1, SVG Export Plug-In . SVG Version: 6.00 Build 0)  -->
<svg version="1.1" id="Layer_1" xmlns="http://www.w3.org/2000/svg" xmlns:xlink="http://www.w3.org/1999/xlink" x="0px" y="0px"
	 viewBox="0 0 301.7 59" style="enable-background:new 0 0 301.7 59;" xml:space="preserve">
<style type="text/css">
	.st0{fill:url(#SVGID_1_);}
	.st1{fill:url(#SVGID_2_);}
	.st2{fill:url(#SVGID_3_);}
	.st3{fill:url(#SVGID_4_);}
	.st4{fill:url(#SVGID_5_);}
	.st5{fill:url(#SVGID_6_);}
	.st6{fill:url(#SVGID_7_);}
	.st7{fill:url(#SVGID_8_);}
	.st8{fill:url(#SVGID_9_);}
	.st9{fill:url(#SVGID_10_);}
	.st10{fill:url(#SVGID_11_);}
	.st11{fill:url(#SVGID_12_);}
	.st12{fill:url(#SVGID_13_);}
	.st13{fill:url(#SVGID_14_);}
	.st14{fill:url(#SVGID_15_);}
	.st15{fill:url(#SVGID_16_);}
	.st16{fill:url(#SVGID_17_);}
	.st17{fill:none;stroke:#000000;stroke-miterlimit:10;}
	.st18{clip-path:url(#SVGID_19_);fill:#F59698;}
	.st19{clip-path:url(#SVGID_19_);fill:#F59597;}
	.st20{clip-path:url(#SVGID_19_);fill:#F59596;}
	.st21{clip-path:url(#SVGID_19_);fill:#F59495;}
	.st22{clip-path:url(#SVGID_19_);fill:#F59394;}
	.st23{clip-path:url(#SVGID_19_);fill:#F59393;}
	.st24{clip-path:url(#SVGID_19_);fill:#F59292;}
	.st25{clip-path:url(#SVGID_19_);fill:#F59191;}
	.st26{clip-path:url(#SVGID_19_);fill:#F49090;}
	.st27{clip-path:url(#SVGID_19_);fill:#F4908F;}
	.st28{clip-path:url(#SVGID_19_);fill:#F48F8E;}
	.st29{clip-path:url(#SVGID_19_);fill:#F48E8D;}
	.st30{clip-path:url(#SVGID_19_);fill:#F48E8C;}
	.st31{clip-path:url(#SVGID_19_);fill:#F48D8B;}
	.st32{clip-path:url(#SVGID_19_);fill:#F48C8A;}
	.st33{clip-path:url(#SVGID_19_);fill:#F48C89;}
	.st34{clip-path:url(#SVGID_19_);fill:#F48B87;}
	.st35{clip-path:url(#SVGID_19_);fill:#F48A86;}
	.st36{clip-path:url(#SVGID_19_);fill:#F48985;}
	.st37{clip-path:url(#SVGID_19_);fill:#F48984;}
	.st38{clip-path:url(#SVGID_19_);fill:#F48883;}
	.st39{clip-path:url(#SVGID_19_);fill:#F48782;}
	.st40{clip-path:url(#SVGID_19_);fill:#F48781;}
	.st41{clip-path:url(#SVGID_19_);fill:#F38680;}
	.st42{clip-path:url(#SVGID_19_);fill:#F3857F;}
	.st43{clip-path:url(#SVGID_19_);fill:#F3857E;}
	.st44{clip-path:url(#SVGID_19_);fill:#F3847D;}
	.st45{clip-path:url(#SVGID_19_);fill:#F3837C;}
	.st46{clip-path:url(#SVGID_19_);fill:#F3827B;}
	.st47{clip-path:url(#SVGID_19_);fill:#F3827A;}
	.st48{clip-path:url(#SVGID_19_);fill:#F38179;}
	.st49{clip-path:url(#SVGID_21_);fill:#F59698;}
	.st50{clip-path:url(#SVGID_21_);fill:#F59597;}
	.st51{clip-path:url(#SVGID_21_);fill:#F59596;}
	.st52{clip-path:url(#SVGID_21_);fill:#F59495;}
	.st53{clip-path:url(#SVGID_21_);fill:#F59394;}
	.st54{clip-path:url(#SVGID_21_);fill:#F59393;}
	.st55{clip-path:url(#SVGID_21_);fill:#F59292;}
	.st56{clip-path:url(#SVGID_21_);fill:#F59191;}
	.st57{clip-path:url(#SVGID_21_);fill:#F49090;}
	.st58{clip-path:url(#SVGID_21_);fill:#F4908F;}
	.st59{clip-path:url(#SVGID_21_);fill:#F48F8E;}
	.st60{clip-path:url(#SVGID_21_);fill:#F48E8D;}
	.st61{clip-path:url(#SVGID_21_);fill:#F48E8C;}
	.st62{clip-path:url(#SVGID_21_);fill:#F48D8B;}
	.st63{clip-path:url(#SVGID_21_);fill:#F48C8A;}
	.st64{clip-path:url(#SVGID_21_);fill:#F48C89;}
	.st65{clip-path:url(#SVGID_21_);fill:#F48B87;}
	.st66{clip-path:url(#SVGID_21_);fill:#F48A86;}
	.st67{clip-path:url(#SVGID_21_);fill:#F48985;}
	.st68{clip-path:url(#SVGID_21_);fill:#F48984;}
	.st69{clip-path:url(#SVGID_21_);fill:#F48883;}
	.st70{clip-path:url(#SVGID_21_);fill:#F48782;}
	.st71{clip-path:url(#SVGID_21_);fill:#F48781;}
	.st72{clip-path:url(#SVGID_21_);fill:#F38680;}
	.st73{clip-path:url(#SVGID_21_);fill:#F3857F;}
	.st74{clip-path:url(#SVGID_21_);fill:#F3857E;}
	.st75{clip-path:url(#SVGID_21_);fill:#F3847D;}
	.st76{clip-path:url(#SVGID_21_);fill:#F3837C;}
	.st77{clip-path:url(#SVGID_21_);fill:#F3827B;}
	.st78{clip-path:url(#SVGID_21_);fill:#F3827A;}
	.st79{clip-path:url(#SVGID_21_);fill:#F38179;}
	.st80{clip-path:url(#SVGID_23_);fill:#F59698;}
	.st81{clip-path:url(#SVGID_23_);fill:#F59597;}
	.st82{clip-path:url(#SVGID_23_);fill:#F59596;}
	.st83{clip-path:url(#SVGID_23_);fill:#F59495;}
	.st84{clip-path:url(#SVGID_23_);fill:#F59394;}
	.st85{clip-path:url(#SVGID_23_);fill:#F59393;}
	.st86{clip-path:url(#SVGID_23_);fill:#F59292;}
	.st87{clip-path:url(#SVGID_23_);fill:#F59191;}
	.st88{clip-path:url(#SVGID_23_);fill:#F49090;}
	.st89{clip-path:url(#SVGID_23_);fill:#F4908F;}
	.st90{clip-path:url(#SVGID_23_);fill:#F48F8E;}
	.st91{clip-path:url(#SVGID_23_);fill:#F48E8D;}
	.st92{clip-path:url(#SVGID_23_);fill:#F48E8C;}
	.st93{clip-path:url(#SVGID_23_);fill:#F48D8B;}
	.st94{clip-path:url(#SVGID_23_);fill:#F48C8A;}
	.st95{clip-path:url(#SVGID_23_);fill:#F48C89;}
	.st96{clip-path:url(#SVGID_23_);fill:#F48B87;}
	.st97{clip-path:url(#SVGID_23_);fill:#F48A86;}
	.st98{clip-path:url(#SVGID_23_);fill:#F48985;}
	.st99{clip-path:url(#SVGID_23_);fill:#F48984;}
	.st100{clip-path:url(#SVGID_23_);fill:#F48883;}
	.st101{clip-path:url(#SVGID_23_);fill:#F48782;}
	.st102{clip-path:url(#SVGID_23_);fill:#F48781;}
	.st103{clip-path:url(#SVGID_23_);fill:#F38680;}
	.st104{clip-path:url(#SVGID_23_);fill:#F3857F;}
	.st105{clip-path:url(#SVGID_23_);fill:#F3857E;}
	.st106{clip-path:url(#SVGID_23_);fill:#F3847D;}
	.st107{clip-path:url(#SVGID_23_);fill:#F3837C;}
	.st108{clip-path:url(#SVGID_23_);fill:#F3827B;}
	.st109{clip-path:url(#SVGID_23_);fill:#F3827A;}
	.st110{clip-path:url(#SVGID_23_);fill:#F38179;}
	.st111{clip-path:url(#SVGID_25_);fill:#F59698;}
	.st112{clip-path:url(#SVGID_25_);fill:#F59597;}
	.st113{clip-path:url(#SVGID_25_);fill:#F59596;}
	.st114{clip-path:url(#SVGID_25_);fill:#F59495;}
	.st115{clip-path:url(#SVGID_25_);fill:#F59394;}
	.st116{clip-path:url(#SVGID_25_);fill:#F59393;}
	.st117{clip-path:url(#SVGID_25_);fill:#F59292;}
	.st118{clip-path:url(#SVGID_25_);fill:#F59191;}
	.st119{clip-path:url(#SVGID_25_);fill:#F49090;}
	.st120{clip-path:url(#SVGID_25_);fill:#F4908F;}
	.st121{clip-path:url(#SVGID_25_);fill:#F48F8E;}
	.st122{clip-path:url(#SVGID_25_);fill:#F48E8D;}
	.st123{clip-path:url(#SVGID_25_);fill:#F48E8C;}
	.st124{clip-path:url(#SVGID_25_);fill:#F48D8B;}
	.st125{clip-path:url(#SVGID_25_);fill:#F48C8A;}
	.st126{clip-path:url(#SVGID_25_);fill:#F48C89;}
	.st127{clip-path:url(#SVGID_25_);fill:#F48B87;}
	.st128{clip-path:url(#SVGID_25_);fill:#F48A86;}
	.st129{clip-path:url(#SVGID_25_);fill:#F48985;}
	.st130{clip-path:url(#SVGID_25_);fill:#F48984;}
	.st131{clip-path:url(#SVGID_25_);fill:#F48883;}
	.st132{clip-path:url(#SVGID_25_);fill:#F48782;}
	.st133{clip-path:url(#SVGID_25_);fill:#F48781;}
	.st134{clip-path:url(#SVGID_25_);fill:#F38680;}
	.st135{clip-path:url(#SVGID_25_);fill:#F3857F;}
	.st136{clip-path:url(#SVGID_25_);fill:#F3857E;}
	.st137{clip-path:url(#SVGID_25_);fill:#F3847D;}
	.st138{clip-path:url(#SVGID_25_);fill:#F3837C;}
	.st139{clip-path:url(#SVGID_25_);fill:#F3827B;}
	.st140{clip-path:url(#SVGID_25_);fill:#F3827A;}
	.st141{clip-path:url(#SVGID_25_);fill:#F38179;}
	.st142{clip-path:url(#SVGID_27_);fill:#F59698;}
	.st143{clip-path:url(#SVGID_27_);fill:#F59597;}
	.st144{clip-path:url(#SVGID_27_);fill:#F59596;}
	.st145{clip-path:url(#SVGID_27_);fill:#F59495;}
	.st146{clip-path:url(#SVGID_27_);fill:#F59394;}
	.st147{clip-path:url(#SVGID_27_);fill:#F59393;}
	.st148{clip-path:url(#SVGID_27_);fill:#F59292;}
	.st149{clip-path:url(#SVGID_27_);fill:#F59191;}
	.st150{clip-path:url(#SVGID_27_);fill:#F49090;}
	.st151{clip-path:url(#SVGID_27_);fill:#F4908F;}
	.st152{clip-path:url(#SVGID_27_);fill:#F48F8E;}
	.st153{clip-path:url(#SVGID_27_);fill:#F48E8D;}
	.st154{clip-path:url(#SVGID_27_);fill:#F48E8C;}
	.st155{clip-path:url(#SVGID_27_);fill:#F48D8B;}
	.st156{clip-path:url(#SVGID_27_);fill:#F48C8A;}
	.st157{clip-path:url(#SVGID_27_);fill:#F48C89;}
	.st158{clip-path:url(#SVGID_27_);fill:#F48B87;}
	.st159{clip-path:url(#SVGID_27_);fill:#F48A86;}
	.st160{clip-path:url(#SVGID_27_);fill:#F48985;}
	.st161{clip-path:url(#SVGID_27_);fill:#F48984;}
	.st162{clip-path:url(#SVGID_27_);fill:#F48883;}
	.st163{clip-path:url(#SVGID_27_);fill:#F48782;}
	.st164{clip-path:url(#SVGID_27_);fill:#F48781;}
	.st165{clip-path:url(#SVGID_27_);fill:#F38680;}
	.st166{clip-path:url(#SVGID_27_);fill:#F3857F;}
	.st167{clip-path:url(#SVGID_27_);fill:#F3857E;}
	.st168{clip-path:url(#SVGID_27_);fill:#F3847D;}
	.st169{clip-path:url(#SVGID_27_);fill:#F3837C;}
	.st170{clip-path:url(#SVGID_27_);fill:#F3827B;}
	.st171{clip-path:url(#SVGID_27_);fill:#F3827A;}
	.st172{clip-path:url(#SVGID_27_);fill:#F38179;}
	.st173{fill:url(#SVGID_28_);}
</style>
<g>
	
		<linearGradient id="SVGID_1_" gradientUnits="userSpaceOnUse" x1="279.78" y1="30.7134" x2="279.78" y2="10.4841" gradientTransform="matrix(1 0 0 -1 0 60)">
		<stop  offset="0" style="stop-color:#F59698"/>
		<stop  offset="1" style="stop-color:#F38179"/>
	</linearGradient>
	<path class="st0" d="M283.2,49v0.6h-6.8V49h0.3c0.5,0,0.8-0.3,0.8-0.8V37.6c0-0.5-0.3-0.8-0.8-0.8h-0.3v-0.6l5.7-0.8v12.8
		c0,0.5,0.4,0.8,0.9,0.8H283.2z M279.8,29.3c1.5,0,2.5,1,2.5,2.5s-1,2.5-2.5,2.5s-2.5-1-2.5-2.5S278.3,29.3,279.8,29.3z"/>
	
		<linearGradient id="SVGID_2_" gradientUnits="userSpaceOnUse" x1="82.43" y1="46.4409" x2="82.43" y2="-1.3429" gradientTransform="matrix(1 0 0 -1 0 60)">
		<stop  offset="0" style="stop-color:#F59698"/>
		<stop  offset="1" style="stop-color:#F38179"/>
	</linearGradient>
	<path class="st1" d="M89.1,44c-0.5,3.8-3.2,6.1-6.6,6.1c-3.8,0-6.7-2.8-6.7-7.4s2.8-7.4,7-7.4c3.4,0,5.4,1.9,5,4.5
		c-0.4,3.3-4.1,5.3-7.1,5c0.5,1.7,1.6,2.8,3.6,2.8c2.5,0,3.6-1.7,4.1-3.5L89.1,44L89.1,44z M80.7,44.4c4.4-4.3,3.6-8.6,1.9-8.6
		c-1.3,0-2.2,2.4-2.2,5.7C80.3,42.6,80.4,43.5,80.7,44.4z"/>
	
		<linearGradient id="SVGID_3_" gradientUnits="userSpaceOnUse" x1="103.28" y1="46.4409" x2="103.28" y2="-1.3429" gradientTransform="matrix(1 0 0 -1 0 60)">
		<stop  offset="0" style="stop-color:#F59698"/>
		<stop  offset="1" style="stop-color:#F38179"/>
	</linearGradient>
	<path class="st2" d="M102.4,54.9v0.6h-6.8v-0.6h0.3c0.5,0,0.8-0.4,0.8-0.9V37.8c0-0.5-0.3-0.8-0.8-0.8h-0.3v-0.6l5.7-0.8v2
		c1.1-1.4,2.4-2.3,4.3-2.3c3.4,0,5.4,3,5.4,7.1c0,4.9-2.8,7.8-6,7.8c-1.8,0-3-1-3.7-2.5v6.5c0,0.5,0.4,0.9,0.9,0.9h0.2V54.9z
		 M101.3,44.6c0.2,3,1.6,4.8,2.8,4.8c1.5,0,2.4-2.5,2.4-7.5c0-3.8-0.5-5.9-2-5.9c-1,0-2.2,0.9-3.2,2.5V44.6z"/>
	
		<linearGradient id="SVGID_4_" gradientUnits="userSpaceOnUse" x1="119.03" y1="46.4409" x2="119.03" y2="-1.3429" gradientTransform="matrix(1 0 0 -1 0 60)">
		<stop  offset="0" style="stop-color:#F59698"/>
		<stop  offset="1" style="stop-color:#F38179"/>
	</linearGradient>
	<path class="st3" d="M125.7,44c-0.5,3.8-3.2,6.1-6.6,6.1c-3.8,0-6.7-2.8-6.7-7.4s2.8-7.4,7-7.4c3.4,0,5.4,1.9,5,4.5
		c-0.4,3.3-4.1,5.3-7.1,5c0.5,1.7,1.6,2.8,3.6,2.8c2.5,0,3.6-1.7,4.1-3.5L125.7,44L125.7,44z M117.2,44.4c4.4-4.3,3.6-8.6,1.9-8.6
		c-1.3,0-2.2,2.4-2.2,5.7C116.9,42.6,117,43.5,117.2,44.4z"/>
	
		<linearGradient id="SVGID_5_" gradientUnits="userSpaceOnUse" x1="130.53" y1="46.4409" x2="130.53" y2="-1.3429" gradientTransform="matrix(1 0 0 -1 0 60)">
		<stop  offset="0" style="stop-color:#F59698"/>
		<stop  offset="1" style="stop-color:#F38179"/>
	</linearGradient>
	<path class="st4" d="M131.1,50.1c-2.3,0-3.6-1.8-3.6-4.6v-9.3h-0.9v-0.6l5.5-3.4v3.4h2.3v0.6h-2.3v10.9c0,0.9,0.5,1.4,1.1,1.4
		c0.5,0,1-0.2,1.3-0.7C134,49.1,132.8,50.1,131.1,50.1z"/>
	
		<linearGradient id="SVGID_6_" gradientUnits="userSpaceOnUse" x1="142.78" y1="46.4409" x2="142.78" y2="-1.3429" gradientTransform="matrix(1 0 0 -1 0 60)">
		<stop  offset="0" style="stop-color:#F59698"/>
		<stop  offset="1" style="stop-color:#F38179"/>
	</linearGradient>
	<path class="st5" d="M142.1,49.2v0.6h-6.8v-0.6h0.2c0.5,0,0.8-0.3,0.8-0.8V37.8c0-0.5-0.3-0.8-0.8-0.8h-0.3v-0.6l5.7-0.8v12.7
		c0,0.5,0.4,0.8,0.9,0.8h0.3V49.2z M148,32.1v3.4h2.3v0.6H148V47c0,0.9,0.5,1.4,1.1,1.4c0.5,0,1-0.2,1.3-0.7
		c-0.5,1.4-1.6,2.4-3.3,2.4c-2.3,0-3.6-1.8-3.6-4.6v-9.3h-1v-0.6l1.1-0.7c-0.1-3.1,0.5-6.7-2.4-6.7c0,0-1.7,0-2.3,1.4
		c1.4,0.1,2.3,1,2.3,2.5c0,1.5-1,2.5-2.5,2.5s-2.5-1-2.5-2.5c0-2.5,3-4.6,6.3-4.6C145.8,27.5,148,29.5,148,32.1z"/>
	
		<linearGradient id="SVGID_7_" gradientUnits="userSpaceOnUse" x1="157.43" y1="46.4409" x2="157.43" y2="-1.3429" gradientTransform="matrix(1 0 0 -1 0 60)">
		<stop  offset="0" style="stop-color:#F59698"/>
		<stop  offset="1" style="stop-color:#F38179"/>
	</linearGradient>
	<path class="st6" d="M164.1,44c-0.5,3.8-3.2,6.1-6.6,6.1c-3.8,0-6.7-2.8-6.7-7.4s2.8-7.4,7-7.4c3.4,0,5.4,1.9,5,4.5
		c-0.4,3.3-4.1,5.3-7.1,5c0.5,1.7,1.6,2.8,3.6,2.8c2.5,0,3.6-1.7,4.1-3.5L164.1,44L164.1,44z M155.6,44.4c4.4-4.3,3.6-8.6,1.9-8.6
		c-1.3,0-2.2,2.4-2.2,5.7C155.3,42.6,155.4,43.5,155.6,44.4z"/>
	
		<linearGradient id="SVGID_8_" gradientUnits="userSpaceOnUse" x1="181.58" y1="25.0029" x2="181.58" y2="4.7736" gradientTransform="matrix(1 0 0 -1 0 60)">
		<stop  offset="0" style="stop-color:#F59698"/>
		<stop  offset="1" style="stop-color:#F38179"/>
	</linearGradient>
	<path class="st7" d="M180.7,54.7v0.6h-6.8v-0.6h0.3c0.5,0,0.8-0.4,0.8-0.9V37.6c0-0.5-0.3-0.8-0.8-0.8h-0.3v-0.6l5.7-0.8v2
		c1.1-1.4,2.4-2.3,4.3-2.3c3.4,0,5.4,3,5.4,7.1c0,4.9-2.8,7.8-6,7.8c-1.8,0-3-1-3.7-2.5V54c0,0.5,0.4,0.9,0.9,0.9h0.2V54.7z
		 M179.6,44.4c0.2,3,1.6,4.8,2.8,4.8c1.5,0,2.4-2.5,2.4-7.5c0-3.8-0.5-5.9-2-5.9c-1,0-2.2,0.9-3.2,2.5
		C179.6,38.3,179.6,44.4,179.6,44.4z"/>
	
		<linearGradient id="SVGID_9_" gradientUnits="userSpaceOnUse" x1="197.63" y1="30.9895" x2="197.63" y2="10.1815" gradientTransform="matrix(1 0 0 -1 0 60)">
		<stop  offset="0" style="stop-color:#F59698"/>
		<stop  offset="1" style="stop-color:#F38179"/>
	</linearGradient>
	<path class="st8" d="M204.7,49v0.6h-4.9c-0.5,0-0.8-0.3-0.8-0.8v-0.5c-0.5,1-1.5,1.7-3.6,1.7c-3,0-4.8-1.3-4.8-3.5
		c0-4.7,7.5-5.1,8.3-6.6c-0.2-2.5-1.1-4.1-2.3-4.1c-1.3,0-2.1,2-0.7,4.5c-0.6,0.4-1.2,0.5-1.8,0.5c-1.4,0-2.6-0.9-2.6-2.3
		c0-1.8,2-3.3,5.6-3.3c4.4,0,6.6,2.3,6.6,5.1v8c0,0.5,0.3,0.8,0.8,0.8h0.2V49z M201.9,31.9l-2.8,1.7l-1.5-3.7l-1.5,3.7l-2.8-1.7
		l3.3-2.8h2.1L201.9,31.9z M199,46.4v-5.9c-0.8,1.6-3.9,2.4-3.9,5.9c0,1.4,0.5,2.9,1.8,2.9C198.1,49.2,199,48,199,46.4z"/>
	
		<linearGradient id="SVGID_10_" gradientUnits="userSpaceOnUse" x1="209.53" y1="28.1409" x2="209.53" y2="10.1815" gradientTransform="matrix(1 0 0 -1 0 60)">
		<stop  offset="0" style="stop-color:#F59698"/>
		<stop  offset="1" style="stop-color:#F38179"/>
	</linearGradient>
	<path class="st9" d="M210.1,49.8c-2.3,0-3.6-1.8-3.6-4.6v-9.3h-0.9v-0.6l5.5-3.4v3.4h2.3v0.6h-2.3v10.9c0,0.9,0.5,1.4,1.1,1.4
		c0.5,0,1-0.2,1.3-0.7C213,48.9,211.8,49.8,210.1,49.8z"/>
	
		<linearGradient id="SVGID_11_" gradientUnits="userSpaceOnUse" x1="217.68" y1="30.7134" x2="217.68" y2="10.4841" gradientTransform="matrix(1 0 0 -1 0 60)">
		<stop  offset="0" style="stop-color:#F59698"/>
		<stop  offset="1" style="stop-color:#F38179"/>
	</linearGradient>
	<path class="st10" d="M221.1,49v0.6h-6.8V49h0.3c0.5,0,0.8-0.3,0.8-0.8V37.6c0-0.5-0.3-0.8-0.8-0.8h-0.3v-0.6l5.7-0.8v12.8
		c0,0.5,0.4,0.8,0.9,0.8H221.1z M217.7,29.3c1.5,0,2.5,1,2.5,2.5s-1,2.5-2.5,2.5s-2.5-1-2.5-2.5C215.1,30.3,216.1,29.3,217.7,29.3z"
		/>
	
		<linearGradient id="SVGID_12_" gradientUnits="userSpaceOnUse" x1="227.83" y1="25.0134" x2="227.83" y2="10.192" gradientTransform="matrix(1 0 0 -1 0 60)">
		<stop  offset="0" style="stop-color:#F59698"/>
		<stop  offset="1" style="stop-color:#F38179"/>
	</linearGradient>
	<path class="st11" d="M228.4,35c3.5,0,5,1.3,5,2.8c0,1.4-1.2,1.9-2.2,1.9c-0.4,0-0.7-0.1-1-0.2c0.7-2.3-0.5-4-2-4
		c-1.2,0-1.9,1-1.9,2.1c0,3.5,7.3,3.2,7.3,8c0,2.6-2.2,4.2-6,4.2c-3.5,0-5.5-1.3-5.5-3.3c0-1.4,0.9-2.5,2.3-2.5
		c0.5,0,1.1,0.1,1.8,0.5c-1.2,2.7,0,4.8,1.8,4.8c1,0,1.7-0.7,1.7-2c0-4.2-7.3-3.8-7.3-8.4C222.6,36.5,224.6,35,228.4,35z"/>
	
		<linearGradient id="SVGID_13_" gradientUnits="userSpaceOnUse" x1="240.63" y1="25.0134" x2="240.63" y2="10.192" gradientTransform="matrix(1 0 0 -1 0 60)">
		<stop  offset="0" style="stop-color:#F59698"/>
		<stop  offset="1" style="stop-color:#F38179"/>
	</linearGradient>
	<path class="st12" d="M241.2,35c3.5,0,5,1.3,5,2.8c0,1.4-1.2,1.9-2.2,1.9c-0.4,0-0.7-0.1-1-0.2c0.7-2.3-0.5-4-2-4
		c-1.2,0-1.9,1-1.9,2.1c0,3.5,7.3,3.2,7.3,8c0,2.6-2.2,4.2-6,4.2c-3.5,0-5.5-1.3-5.5-3.3c0-1.4,0.9-2.5,2.3-2.5
		c0.5,0,1.1,0.1,1.8,0.5c-1.2,2.7,0,4.8,1.8,4.8c1,0,1.7-0.7,1.7-2c0-4.2-7.3-3.8-7.3-8.4C235.4,36.5,237.5,35,241.2,35z"/>
	
		<linearGradient id="SVGID_14_" gradientUnits="userSpaceOnUse" x1="254.53" y1="25.0029" x2="254.53" y2="10.1815" gradientTransform="matrix(1 0 0 -1 0 60)">
		<stop  offset="0" style="stop-color:#F59698"/>
		<stop  offset="1" style="stop-color:#F38179"/>
	</linearGradient>
	<path class="st13" d="M261.2,43.8c-0.5,3.8-3.2,6.1-6.6,6.1c-3.8,0-6.7-2.8-6.7-7.4s2.8-7.4,7-7.4c3.4,0,5.4,1.9,5,4.5
		c-0.4,3.3-4.1,5.3-7.1,5c0.5,1.7,1.6,2.8,3.6,2.8c2.5,0,3.6-1.7,4.1-3.5L261.2,43.8L261.2,43.8z M252.8,44.2
		c4.4-4.3,3.6-8.6,1.9-8.6c-1.3,0-2.2,2.4-2.2,5.7C252.5,42.3,252.6,43.3,252.8,44.2z"/>
	
		<linearGradient id="SVGID_15_" gradientUnits="userSpaceOnUse" x1="268.73" y1="25.0029" x2="268.73" y2="10.4708" gradientTransform="matrix(1 0 0 -1 0 60)">
		<stop  offset="0" style="stop-color:#F59698"/>
		<stop  offset="1" style="stop-color:#F38179"/>
	</linearGradient>
	<path class="st14" d="M268.8,49v0.6H262V49h0.3c0.5,0,0.8-0.3,0.8-0.8V37.6c0-0.5-0.3-0.8-0.8-0.8H262v-0.6l5.7-0.8v2.1
		c0.8-1.4,1.9-2.4,3.6-2.4c2.1,0,4.2,1.6,4.2,3.8c0,1.6-1.1,2.7-3.2,2.7c-0.4,0-0.9,0-1.4-0.1c2.3-3.4,1.6-5.8,0-5.8
		c-1.2,0-2.3,1.4-3.1,2.9v9.6c0,0.5,0.4,0.8,0.9,0.8H268.8z"/>
	
		<linearGradient id="SVGID_16_" gradientUnits="userSpaceOnUse" x1="290.93" y1="25.0029" x2="290.93" y2="10.1815" gradientTransform="matrix(1 0 0 -1 0 60)">
		<stop  offset="0" style="stop-color:#F59698"/>
		<stop  offset="1" style="stop-color:#F38179"/>
	</linearGradient>
	<path class="st15" d="M297.6,43.8c-0.5,3.8-3.2,6.1-6.6,6.1c-3.8,0-6.7-2.8-6.7-7.4s2.8-7.4,7-7.4c3.4,0,5.4,1.9,5,4.5
		c-0.4,3.3-4.1,5.3-7.1,5c0.5,1.7,1.6,2.8,3.6,2.8c2.5,0,3.6-1.7,4.1-3.5L297.6,43.8L297.6,43.8z M289.2,44.2
		c4.4-4.3,3.6-8.6,1.9-8.6c-1.3,0-2.2,2.4-2.2,5.7C288.8,42.3,288.9,43.3,289.2,44.2z"/>
	<g>
		
			<linearGradient id="SVGID_17_" gradientUnits="userSpaceOnUse" x1="65.58" y1="56.8134" x2="65.58" y2="9.9091" gradientTransform="matrix(1 0 0 -1 0 60)">
			<stop  offset="0" style="stop-color:#F59698"/>
			<stop  offset="1" style="stop-color:#F38179"/>
		</linearGradient>
		<path class="st16" d="M59.7,40.8V12.4c0-2.9,0.1-7.1,3.2-8.6c0.7-0.5,1.7-0.6,2.7-0.6c4.2,0,5.8,3.5,5.8,6.9c0,2.3-1,5.5-2.7,6.9
			c-1.2,1-2.7,1.2-4.3,1.4v22.5c0,1.6,0,3.1,0.2,4.5c0.3,2.3,1.2,3.5,2.7,3.5c2.3,0,3.3-2.9,3.5-5.6c0-0.6,0-1.2,0-1.6v-3.2h0.7v3.2
			c0,1.7,0,6.3-3.2,7.9c-0.8,0.4-1.8,0.6-2.8,0.6C60,50.1,59.7,44.8,59.7,40.8z M68.2,16.4c1.6-1.3,2.5-4,2.6-6.3
			c0-0.8,0-1.5-0.2-2.2c-0.5-2.2-1.7-3.6-3.2-3.6c-2.8,0-2.9,4-2.9,8v5.3C65.8,17.5,67.1,17.3,68.2,16.4z"/>
	</g>
</g>
<path class="st17" d="M-1644.8,258.2"/>
<path class="st17" d="M-1396.2,410.3"/>
<g>
	<g>
		<g>
			<defs>
				<path id="SVGID_18_" d="M18.8,46.8c-1-3.9-2-7.7-3-11.5c-0.4-1.7,0.4-3,1.8-3.3c1.5-0.4,2.8,0.5,3.2,2.2
					c0.5,2.1,0.8,4.2,1.4,6.3c0-1.8,0-3.5,0-5.3c0-2,1-3.1,2.6-3.2c1.7-0.1,2.7,1,2.9,3c0.2,1.8,0.3,3.5,0.7,5.4
					c0.1-0.3,0.2-0.6,0.3-0.9c0.1-1.6,0.2-3.1,0.4-4.7c0.2-1.8,1.3-2.9,2.9-2.8c1.6,0.1,2.5,1.2,2.6,3c0,1.9,0,3.7,0,5.9
					c0.5-2.3,0.9-4.3,1.4-6.4c0.3-1.3,0.9-2.3,2.4-2.5c1.8-0.2,3.2,1.3,2.7,3.2c-0.9,3.9-2,7.7-3,11.6
					C31.7,46.8,25.4,46.8,18.8,46.8z"/>
			</defs>
			<clipPath id="SVGID_19_">
				<use xlink:href="#SVGID_18_"  style="overflow:visible;"/>
			</clipPath>
			<rect x="15.4" y="31.7" class="st18" width="0.3" height="15.1"/>
			<rect x="15.7" y="31.7" class="st18" width="0.8" height="15.1"/>
			<rect x="16.6" y="31.7" class="st19" width="0.8" height="15.1"/>
			<rect x="17.4" y="31.7" class="st20" width="0.8" height="15.1"/>
			<rect x="18.2" y="31.7" class="st21" width="0.8" height="15.1"/>
			<rect x="19" y="31.7" class="st22" width="0.8" height="15.1"/>
			<rect x="19.8" y="31.7" class="st23" width="0.8" height="15.1"/>
			<rect x="20.7" y="31.7" class="st24" width="0.8" height="15.1"/>
			<rect x="21.5" y="31.7" class="st25" width="0.8" height="15.1"/>
			<rect x="22.3" y="31.7" class="st26" width="0.8" height="15.1"/>
			<rect x="23.1" y="31.7" class="st27" width="0.8" height="15.1"/>
			<rect x="23.9" y="31.7" class="st28" width="0.8" height="15.1"/>
			<rect x="24.8" y="31.7" class="st29" width="0.8" height="15.1"/>
			<rect x="25.6" y="31.7" class="st30" width="0.8" height="15.1"/>
			<rect x="26.4" y="31.7" class="st31" width="0.8" height="15.1"/>
			<rect x="27.2" y="31.7" class="st32" width="0.8" height="15.1"/>
			<rect x="28.1" y="31.7" class="st33" width="0.8" height="15.1"/>
			<rect x="28.9" y="31.7" class="st34" width="0.8" height="15.1"/>
			<rect x="29.7" y="31.7" class="st35" width="0.8" height="15.1"/>
			<rect x="30.5" y="31.7" class="st36" width="0.8" height="15.1"/>
			<rect x="31.3" y="31.7" class="st37" width="0.8" height="15.1"/>
			<rect x="32.2" y="31.7" class="st38" width="0.8" height="15.1"/>
			<rect x="33" y="31.7" class="st39" width="0.8" height="15.1"/>
			<rect x="33.8" y="31.7" class="st40" width="0.8" height="15.1"/>
			<rect x="34.6" y="31.7" class="st41" width="0.8" height="15.1"/>
			<rect x="35.4" y="31.7" class="st42" width="0.8" height="15.1"/>
			<rect x="36.3" y="31.7" class="st43" width="0.8" height="15.1"/>
			<rect x="37.1" y="31.7" class="st44" width="0.8" height="15.1"/>
			<rect x="37.9" y="31.7" class="st45" width="0.8" height="15.1"/>
			<rect x="38.7" y="31.7" class="st46" width="0.8" height="15.1"/>
			<rect x="39.6" y="31.7" class="st47" width="0.8" height="15.1"/>
			<rect x="40.4" y="31.7" class="st48" width="0.8" height="15.1"/>
			<rect x="41.2" y="31.7" class="st48" width="0.4" height="15.1"/>
		</g>
	</g>
	<g>
		<g>
			<defs>
				<path id="SVGID_20_" d="M43.7,26.6c-0.8,1.2-1.5,2.3-2.4,3.5c-0.2,0.2-0.8,0.3-1.1,0.2c-1.9-0.6-3.5-0.1-4.8,1.4
					c-2.9-2.2-4.4-2.2-6.6-0.2c-1.4-0.5-2.6-1.3-3.8-1.3c-1.2,0-2.3,0.8-3.7,1.3c-2-1.8-3.1-1.8-5.9-0.4c-1.9-1.5-2.4-2.9-1.8-5.1
					c0.6-2.2,2.4-3.9,4.7-3.8c1.8,0,3.7,0.4,5.5,1c3.1,1,6.1,2.2,9,3.5c3.6,1.6,7.1,1.8,10.5-0.5C43.4,26.3,43.5,26.4,43.7,26.6z"/>
			</defs>
			<clipPath id="SVGID_21_">
				<use xlink:href="#SVGID_20_"  style="overflow:visible;"/>
			</clipPath>
			<rect x="13" y="22" class="st49" width="0.4" height="9.6"/>
			<rect x="13.3" y="22" class="st49" width="1" height="9.6"/>
			<rect x="14.3" y="22" class="st50" width="1" height="9.6"/>
			<rect x="15.3" y="22" class="st51" width="1" height="9.6"/>
			<rect x="16.3" y="22" class="st52" width="1" height="9.6"/>
			<rect x="17.2" y="22" class="st53" width="1" height="9.6"/>
			<rect x="18.2" y="22" class="st54" width="1" height="9.6"/>
			<rect x="19.2" y="22" class="st55" width="1" height="9.6"/>
			<rect x="20.2" y="22" class="st56" width="1" height="9.6"/>
			<rect x="21.2" y="22" class="st57" width="1" height="9.6"/>
			<rect x="22.1" y="22" class="st58" width="1" height="9.6"/>
			<rect x="23.1" y="22" class="st59" width="1" height="9.6"/>
			<rect x="24.1" y="22" class="st60" width="1" height="9.6"/>
			<rect x="25.1" y="22" class="st61" width="1" height="9.6"/>
			<rect x="26.1" y="22" class="st62" width="1" height="9.6"/>
			<rect x="27" y="22" class="st63" width="1" height="9.6"/>
			<rect x="28" y="22" class="st64" width="1" height="9.6"/>
			<rect x="29" y="22" class="st65" width="1" height="9.6"/>
			<rect x="30" y="22" class="st66" width="1" height="9.6"/>
			<rect x="31" y="22" class="st67" width="1" height="9.6"/>
			<rect x="31.9" y="22" class="st68" width="1" height="9.6"/>
			<rect x="32.9" y="22" class="st69" width="1" height="9.6"/>
			<rect x="33.9" y="22" class="st70" width="1" height="9.6"/>
			<rect x="34.9" y="22" class="st71" width="1" height="9.6"/>
			<rect x="35.9" y="22" class="st72" width="1" height="9.6"/>
			<rect x="36.8" y="22" class="st73" width="1" height="9.6"/>
			<rect x="37.8" y="22" class="st74" width="1" height="9.6"/>
			<rect x="38.8" y="22" class="st75" width="1" height="9.6"/>
			<rect x="39.8" y="22" class="st76" width="1" height="9.6"/>
			<rect x="40.8" y="22" class="st77" width="1" height="9.6"/>
			<rect x="41.7" y="22" class="st78" width="1" height="9.6"/>
			<rect x="42.7" y="22" class="st79" width="1" height="9.6"/>
			<path class="st79" d="M43.7,31.6V22V31.6z"/>
		</g>
	</g>
	<g>
		<g>
			<defs>
				<path id="SVGID_22_" d="M36.8,16.4c-0.4,1.5-1.7,2.3-3.4,2.6c-1.1,0.2-2.2,0.3-3.2,0.2c-3.4-0.3-6.6-0.3-9.9,0.7
					c-2.1,0.6-3.6-0.2-4-1.5c-0.5-1.5,0.4-3.3,2.2-4.2c2.2-1.1,4.6-1,7-0.5c1.4,0.3,2.8,0.8,4.2,1.2C32,15.4,34.4,15.9,36.8,16.4z"
					/>
			</defs>
			<clipPath id="SVGID_23_">
				<use xlink:href="#SVGID_22_"  style="overflow:visible;"/>
			</clipPath>
			<rect x="15.8" y="13" class="st80" width="0.4" height="7.4"/>
			<rect x="16.2" y="13" class="st80" width="0.7" height="7.4"/>
			<rect x="16.8" y="13" class="st81" width="0.7" height="7.4"/>
			<rect x="17.5" y="13" class="st82" width="0.7" height="7.4"/>
			<rect x="18.2" y="13" class="st83" width="0.7" height="7.4"/>
			<rect x="18.8" y="13" class="st84" width="0.7" height="7.4"/>
			<rect x="19.5" y="13" class="st85" width="0.7" height="7.4"/>
			<rect x="20.2" y="13" class="st86" width="0.7" height="7.4"/>
			<rect x="20.8" y="13" class="st87" width="0.7" height="7.4"/>
			<rect x="21.5" y="13" class="st88" width="0.7" height="7.4"/>
			<rect x="22.1" y="13" class="st89" width="0.7" height="7.4"/>
			<rect x="22.8" y="13" class="st90" width="0.7" height="7.4"/>
			<rect x="23.5" y="13" class="st91" width="0.7" height="7.4"/>
			<rect x="24.1" y="13" class="st92" width="0.7" height="7.4"/>
			<rect x="24.8" y="13" class="st93" width="0.7" height="7.4"/>
			<rect x="25.5" y="13" class="st94" width="0.7" height="7.4"/>
			<rect x="26.1" y="13" class="st95" width="0.7" height="7.4"/>
			<rect x="26.8" y="13" class="st96" width="0.7" height="7.4"/>
			<rect x="27.5" y="13" class="st97" width="0.7" height="7.4"/>
			<rect x="28.1" y="13" class="st98" width="0.7" height="7.4"/>
			<rect x="28.8" y="13" class="st99" width="0.7" height="7.4"/>
			<rect x="29.5" y="13" class="st100" width="0.7" height="7.4"/>
			<rect x="30.1" y="13" class="st101" width="0.7" height="7.4"/>
			<rect x="30.8" y="13" class="st102" width="0.7" height="7.4"/>
			<rect x="31.5" y="13" class="st103" width="0.7" height="7.4"/>
			<rect x="32.1" y="13" class="st104" width="0.7" height="7.4"/>
			<rect x="32.8" y="13" class="st105" width="0.7" height="7.4"/>
			<rect x="33.5" y="13" class="st106" width="0.7" height="7.4"/>
			<rect x="34.1" y="13" class="st107" width="0.7" height="7.4"/>
			<rect x="34.8" y="13" class="st108" width="0.7" height="7.4"/>
			<rect x="35.5" y="13" class="st109" width="0.7" height="7.4"/>
			<rect x="36.1" y="13" class="st110" width="0.7" height="7.4"/>
			<path class="st110" d="M36.8,20.4V13V20.4z"/>
		</g>
	</g>
	<g>
		<g>
			<defs>
				<path id="SVGID_24_" d="M39.9,17.4c2.7,2.4,3.4,4.2,2.4,6.2c-0.9,1.8-3.2,2.5-6.2,1.6c-4.2-1.2-8.2-2.7-12.3-4.4
					c1.2,0.1,2.3,0.3,3.5,0.3c3.1-0.1,6.2-0.2,9.3-0.5C38.2,20.4,39.4,19.3,39.9,17.4z"/>
			</defs>
			<clipPath id="SVGID_25_">
				<use xlink:href="#SVGID_24_"  style="overflow:visible;"/>
			</clipPath>
			<path class="st111" d="M23.7,17.4v8.7V17.4z"/>
			<rect x="23.7" y="17.4" class="st111" width="0.6" height="8.7"/>
			<rect x="24.4" y="17.4" class="st112" width="0.6" height="8.7"/>
			<rect x="25" y="17.4" class="st113" width="0.6" height="8.7"/>
			<rect x="25.6" y="17.4" class="st114" width="0.6" height="8.7"/>
			<rect x="26.2" y="17.4" class="st115" width="0.6" height="8.7"/>
			<rect x="26.8" y="17.4" class="st116" width="0.6" height="8.7"/>
			<rect x="27.4" y="17.4" class="st117" width="0.6" height="8.7"/>
			<rect x="28" y="17.4" class="st118" width="0.6" height="8.7"/>
			<rect x="28.6" y="17.4" class="st119" width="0.6" height="8.7"/>
			<rect x="29.3" y="17.4" class="st120" width="0.6" height="8.7"/>
			<rect x="29.9" y="17.4" class="st121" width="0.6" height="8.7"/>
			<rect x="30.5" y="17.4" class="st122" width="0.6" height="8.7"/>
			<rect x="31.1" y="17.4" class="st123" width="0.6" height="8.7"/>
			<rect x="31.7" y="17.4" class="st124" width="0.6" height="8.7"/>
			<rect x="32.3" y="17.4" class="st125" width="0.6" height="8.7"/>
			<rect x="32.9" y="17.4" class="st126" width="0.6" height="8.7"/>
			<rect x="33.5" y="17.4" class="st127" width="0.6" height="8.7"/>
			<rect x="34.2" y="17.4" class="st128" width="0.6" height="8.7"/>
			<rect x="34.8" y="17.4" class="st129" width="0.6" height="8.7"/>
			<rect x="35.4" y="17.4" class="st130" width="0.6" height="8.7"/>
			<rect x="36" y="17.4" class="st131" width="0.6" height="8.7"/>
			<rect x="36.6" y="17.4" class="st132" width="0.6" height="8.7"/>
			<rect x="37.2" y="17.4" class="st133" width="0.6" height="8.7"/>
			<rect x="37.8" y="17.4" class="st134" width="0.6" height="8.7"/>
			<rect x="38.4" y="17.4" class="st135" width="0.6" height="8.7"/>
			<rect x="39.1" y="17.4" class="st136" width="0.6" height="8.7"/>
			<rect x="39.7" y="17.4" class="st137" width="0.6" height="8.7"/>
			<rect x="40.3" y="17.4" class="st138" width="0.6" height="8.7"/>
			<rect x="40.9" y="17.4" class="st139" width="0.6" height="8.7"/>
			<rect x="41.5" y="17.4" class="st140" width="0.6" height="8.7"/>
			<rect x="42.1" y="17.4" class="st141" width="0.6" height="8.7"/>
			<rect x="42.7" y="17.4" class="st141" width="0.6" height="8.7"/>
		</g>
	</g>
	<g>
		<g>
			<defs>
				<path id="SVGID_26_" d="M27.3,5.4c3.3,1.3,5.2,3.2,6.1,6.1c0.4,1.3-0.1,1.9-1.2,1.7c-2.3-0.3-4.5-0.8-6.8-1.4
					c-0.2-0.1-0.5-0.9-0.4-1.2c0.2-0.6,0.6-1.1,1.1-1.5C27.4,8.3,28.2,7.4,27.3,5.4z"/>
			</defs>
			<clipPath id="SVGID_27_">
				<use xlink:href="#SVGID_26_"  style="overflow:visible;"/>
			</clipPath>
			<rect x="24.9" y="5.4" class="st142" width="0.1" height="7.9"/>
			<rect x="25" y="5.4" class="st142" width="0.3" height="7.9"/>
			<rect x="25.3" y="5.4" class="st143" width="0.3" height="7.9"/>
			<rect x="25.6" y="5.4" class="st144" width="0.3" height="7.9"/>
			<rect x="25.8" y="5.4" class="st145" width="0.3" height="7.9"/>
			<rect x="26.1" y="5.4" class="st146" width="0.3" height="7.9"/>
			<rect x="26.4" y="5.4" class="st147" width="0.3" height="7.9"/>
			<rect x="26.7" y="5.4" class="st148" width="0.3" height="7.9"/>
			<rect x="26.9" y="5.4" class="st149" width="0.3" height="7.9"/>
			<rect x="27.2" y="5.4" class="st150" width="0.3" height="7.9"/>
			<rect x="27.5" y="5.4" class="st151" width="0.3" height="7.9"/>
			<rect x="27.8" y="5.4" class="st152" width="0.3" height="7.9"/>
			<rect x="28" y="5.4" class="st153" width="0.3" height="7.9"/>
			<rect x="28.3" y="5.4" class="st154" width="0.3" height="7.9"/>
			<rect x="28.6" y="5.4" class="st155" width="0.3" height="7.9"/>
			<rect x="28.9" y="5.4" class="st156" width="0.3" height="7.9"/>
			<rect x="29.1" y="5.4" class="st157" width="0.3" height="7.9"/>
			<rect x="29.4" y="5.4" class="st158" width="0.3" height="7.9"/>
			<rect x="29.7" y="5.4" class="st159" width="0.3" height="7.9"/>
			<rect x="30" y="5.4" class="st160" width="0.3" height="7.9"/>
			<rect x="30.2" y="5.4" class="st161" width="0.3" height="7.9"/>
			<rect x="30.5" y="5.4" class="st162" width="0.3" height="7.9"/>
			<rect x="30.8" y="5.4" class="st163" width="0.3" height="7.9"/>
			<rect x="31.1" y="5.4" class="st164" width="0.3" height="7.9"/>
			<rect x="31.3" y="5.4" class="st165" width="0.3" height="7.9"/>
			<rect x="31.6" y="5.4" class="st166" width="0.3" height="7.9"/>
			<rect x="31.9" y="5.4" class="st167" width="0.3" height="7.9"/>
			<rect x="32.2" y="5.4" class="st168" width="0.3" height="7.9"/>
			<rect x="32.4" y="5.4" class="st169" width="0.3" height="7.9"/>
			<rect x="32.7" y="5.4" class="st170" width="0.3" height="7.9"/>
			<rect x="33" y="5.4" class="st171" width="0.3" height="7.9"/>
			<rect x="33.3" y="5.4" class="st172" width="0.3" height="7.9"/>
			<rect x="33.6" y="5.4" class="st172" width="0.3" height="7.9"/>
		</g>
	</g>
	<g>
		<linearGradient id="SVGID_28_" gradientUnits="userSpaceOnUse" x1="6.0405" y1="31.3324" x2="50.9727" y2="31.3324">
			<stop  offset="0" style="stop-color:#F59698"/>
			<stop  offset="1" style="stop-color:#F38179"/>
		</linearGradient>
		<path class="st173" d="M28.5,53.3C16.1,53.3,6,43.2,6,30.8C6,21,12.3,12.4,21.7,9.4c0.3-0.1,0.5,0.1,0.6,0.3
			c0.1,0.3-0.1,0.5-0.3,0.6C13,13.2,7,21.4,7,30.8c0,11.8,9.6,21.5,21.5,21.5S50,42.6,50,30.8c0-8.6-5.1-16.4-13.1-19.8
			c-0.3-0.1-0.4-0.4-0.3-0.7c0.1-0.3,0.4-0.4,0.7-0.3C45.6,13.7,51,21.8,51,30.8C51,43.2,40.9,53.3,28.5,53.3z"/>
	</g>
</g>
</svg>
