<svg id="Layer_1" data-name="Layer 1" xmlns="http://www.w3.org/2000/svg" xmlns:xlink="http://www.w3.org/1999/xlink" viewBox="0 0 322.21 62.98"><defs><style>.cls-1{fill:#511f40;}.cls-2{fill:url(#linear-gradient);}.cls-3{fill:#fff;}.cls-4{fill:url(#linear-gradient-2);}.cls-5{fill:url(#linear-gradient-3);}.cls-6{fill:url(#linear-gradient-4);}.cls-7{fill:url(#linear-gradient-5);}.cls-8{fill:url(#linear-gradient-6);}.cls-9{fill:url(#linear-gradient-7);}.cls-10{fill:url(#linear-gradient-8);}.cls-11{fill:url(#linear-gradient-9);}.cls-12{fill:url(#linear-gradient-10);}.cls-13{fill:url(#linear-gradient-11);}</style><linearGradient id="linear-gradient" x1="18.49" y1="-1.78" x2="18.49" y2="52.84" gradientUnits="userSpaceOnUse"><stop offset="0" stop-color="#e3375e"/><stop offset="1" stop-color="#febf21"/></linearGradient><linearGradient id="linear-gradient-2" x1="49.6" y1="-1.78" x2="49.6" y2="52.84" xlink:href="#linear-gradient"/><linearGradient id="linear-gradient-3" x1="76.6" y1="-1.78" x2="76.6" y2="52.84" xlink:href="#linear-gradient"/><linearGradient id="linear-gradient-4" x1="126.2" y1="-1.78" x2="126.2" y2="52.84" xlink:href="#linear-gradient"/><linearGradient id="linear-gradient-5" x1="161.4" y1="-1.78" x2="161.4" y2="52.84" xlink:href="#linear-gradient"/><linearGradient id="linear-gradient-6" x1="187.68" y1="-1.78" x2="187.68" y2="52.84" xlink:href="#linear-gradient"/><linearGradient id="linear-gradient-7" x1="210.06" y1="-1.78" x2="210.06" y2="52.84" xlink:href="#linear-gradient"/><linearGradient id="linear-gradient-8" x1="232.16" y1="-1.78" x2="232.16" y2="52.84" xlink:href="#linear-gradient"/><linearGradient id="linear-gradient-9" x1="252.5" y1="-1.78" x2="252.5" y2="52.84" xlink:href="#linear-gradient"/><linearGradient id="linear-gradient-10" x1="276.65" y1="-1.78" x2="276.65" y2="52.84" xlink:href="#linear-gradient"/><linearGradient id="linear-gradient-11" x1="303.76" y1="-1.78" x2="303.76" y2="52.84" xlink:href="#linear-gradient"/></defs><path class="cls-1" d="M91.44,20.7a7.86,7.86,0,0,0-3-1.92,9.78,9.78,0,0,0-3.28-.51h-.63a21.71,21.71,0,0,0-7.21,1.65,26.08,26.08,0,0,0-6.55,3.85,21.41,21.41,0,0,0-4.2,4.54,12.52,12.52,0,0,0-.92-2.81,10.76,10.76,0,0,0-3-3.84,10.46,10.46,0,0,0-4.21-2.07,14.47,14.47,0,0,0-3.56-.44l-1,0a21,21,0,0,0-7.22,1.87,24.79,24.79,0,0,0-6.48,4.17,21,21,0,0,0-4.7,6.12A14.82,14.82,0,0,0,33.92,39a20.58,20.58,0,0,0-1.41,4.4A21.82,21.82,0,0,0,32.15,46a11.85,11.85,0,0,0-2.26-1.19,19,19,0,0,0-5.45-1.26q-1.44-.12-2.85-.12c-.59,0-1.18,0-1.77,0,0,0,0,0,0-.06q.86-2.62,1.81-5.63c.62-2,1.26-4,1.89-6.21s1.18-4.15,1.67-6,.91-3.69,1.2-5.22a16,16,0,0,0,.36-4.06A8.57,8.57,0,0,0,25,11.68a11.84,11.84,0,0,0-3.33-3,14.2,14.2,0,0,0-4-1.6,13,13,0,0,0-3.14-.4c-.33,0-.66,0-1,0a8.62,8.62,0,0,0-2.6.62L7.87,8.7l1.82,2.88a2.76,2.76,0,0,1,.43,1c.1.55.18,1.14.24,1.75a16.1,16.1,0,0,1-.53,4.41C9.37,20.91,8.74,23.36,8,26s-1.64,5.46-2.57,8.32-1.81,5.58-2.61,8.07-1.45,4.66-2,6.51C.1,51.44-.1,52.67,0,53.64A22.58,22.58,0,0,0,.64,56l.07.22A13.34,13.34,0,0,0,2,59.15a9,9,0,0,0,2.19,2.62A5.68,5.68,0,0,0,7.71,63a4.36,4.36,0,0,0,.62,0l.35,0L9,62.81c1.91-.64,4-1.25,6.1-1.81a40.6,40.6,0,0,1,6.72-1.12c1-.08,2.09-.12,3.17-.12.73,0,1.48,0,2.22.05a36.71,36.71,0,0,1,5.81.82l2.9.63.56-2.91c.08-.38.14-.75.19-1.12a13.34,13.34,0,0,0,3.89,2,11.69,11.69,0,0,0,3.67.59,7,7,0,0,0,.8,0,18,18,0,0,0,9.55-3.48A27.84,27.84,0,0,0,60,51.18,8.38,8.38,0,0,0,61,53a10.55,10.55,0,0,0,3.54,3.23A14.27,14.27,0,0,0,69,57.8a22.8,22.8,0,0,0,3.63.3c.4,0,.8,0,1.21,0a25.36,25.36,0,0,0,6.41-1.18,22.12,22.12,0,0,0,5.86-2.77A16.15,16.15,0,0,0,90.6,49.7a10.48,10.48,0,0,0,1.79-6.43,8.36,8.36,0,0,0-1.55-4.78l-.33-.41.78-1.51a23.88,23.88,0,0,0,1.8-4.66,17.12,17.12,0,0,0,.64-5.17,11.64,11.64,0,0,0-.55-3.08A7.89,7.89,0,0,0,91.44,20.7Z"/><path class="cls-1" d="M322,30.08a7.61,7.61,0,0,0-4-5.47,10.13,10.13,0,0,0-3.8-1,17,17,0,0,0-1.75-.09,23.35,23.35,0,0,0-5.62.74,25.63,25.63,0,0,0-7,2.94A22,22,0,0,0,295,31.11a12.78,12.78,0,0,0-.54-2.89A10.89,10.89,0,0,0,292.05,24a10.58,10.58,0,0,0-3.89-2.62,14.49,14.49,0,0,0-4.47-1c-.43,0-.88-.05-1.33-.05a21.8,21.8,0,0,0-6.08.92,25.18,25.18,0,0,0-7,3.26c-.45.32-.89.64-1.32,1a4.88,4.88,0,0,0-.2-.65c0-.12-.09-.24-.15-.37a7.75,7.75,0,0,0-.56-1.06l-.24-.34a8.14,8.14,0,0,0-.54-.63,7.71,7.71,0,0,0-1.74-1.31l-.41-.21-.22-.1.3-.46c.34-.54.67-1.09,1-1.63l.15-.27.15-.26c.07-.13.13-.25.19-.39a7.85,7.85,0,0,0,.44-1.16c.06-.2.11-.4.16-.59s.07-.4.09-.6,0-.28,0-.41a7.13,7.13,0,0,0-.24-2.27,5.51,5.51,0,0,0-.44-1.17c-.09-.18-.18-.37-.29-.55A9.19,9.19,0,0,0,264,9.22,9.49,9.49,0,0,0,263,8.28l-.71-.51-.66-.4-.11-.06c-.23-.13-.47-.26-.72-.38,0,0,0,0,0,0l-.65-.29L260,6.56a12.25,12.25,0,0,0-3.25-.86l-2.23-.24-.8,2.08c-.09.23-.18.48-.28.71l-3.79-.13,2.83,2.41c-.55,1.24-1.16,2.49-1.82,3.76-.42.8-.87,1.63-1.34,2.46L248.6,18c-.44.75-.9,1.5-1.37,2.26-.21,0-.44.05-.71.06s-.62.05-.91.07h-1.54l-.85,0,.23-.31a14.8,14.8,0,0,0,2.93-5.76l.06-.3a8.58,8.58,0,0,0,.1-.87,6.8,6.8,0,0,0-.06-1.2,2.51,2.51,0,0,0,0-.27A5.76,5.76,0,0,0,245.26,9c-.09-.08-.16-.18-.25-.26s-.17-.18-.25-.27a7,7,0,0,0-.58-.47,2.49,2.49,0,0,0-.31-.23,8.71,8.71,0,0,0-3.13-1.19,6.33,6.33,0,0,0-.78-.15c-.29,0-.58-.08-.89-.11l-.09,0c-.48,0-1-.09-1.51-.11l-1.37-.05-.91,1c-.26.28-.5.57-.74.86h0c-.24.29-.46.58-.68.88s-.48.72-.7,1.08h0l-2.4.69,1.58.84h0a8.94,8.94,0,0,0-.38.92q-.11.27-.18.54a8.28,8.28,0,0,0-.37,2.1,2.81,2.81,0,0,0,0,.29c0,.16,0,.32,0,.48s0,.31.05.46a2.68,2.68,0,0,0,0,.3c0,.07,0,.14,0,.21l.12.44c0,.11.07.22.12.33s.09.21.13.32l.11.22c0,.08.09.16.14.24a1.88,1.88,0,0,0,.14.24l.15.23h0l-.49,0h-.41l-1.94-.09v0l-.8,1.77c-.3.69-.62,1.38-1,2.1,0,0,0,0,0-.07-.08-.25-.16-.48-.26-.72a6.63,6.63,0,0,0-.52-1c-.13-.22-.27-.44-.42-.65a10.78,10.78,0,0,0-.77-.9h0a5.93,5.93,0,0,0-1.33-1.05,4.41,4.41,0,0,0-.64-.36,10.12,10.12,0,0,0-2.49-.84,13.44,13.44,0,0,0-1.5-.24c-.37,0-.74-.06-1.14-.08h-.55a17.21,17.21,0,0,0-6.22,1.2,25.85,25.85,0,0,0-6.16,3.43,37.46,37.46,0,0,0-4.08,3.54c-.43.44-.85.88-1.27,1.34l-.3.34c-.11.12-.21.23-.31.36-.4.46-.8.95-1.17,1.42s-.75,1-1.09,1.47c-.52.73-1,1.49-1.47,2.26a33.84,33.84,0,0,0-2.7,5.56A19.14,19.14,0,0,1,191.29,39a12.5,12.5,0,0,1-1.9.9c0-.22.09-.49.15-.77s.07-.29.11-.46.08-.32.13-.48c.38-1.46.84-2.92,1.35-4.34.4-1.12.83-2.24,1.28-3.36.16-.36.31-.71.46-1.07l.22-.54c.08-.18.16-.35.23-.52.16-.36.31-.71.46-1,.27-.61.53-1.16.77-1.67s.36-.76.55-1.14c.58-1.13,1.2-2.28,1.85-3.41l2.29-4,.12-.22.1-.16.14-.27.15-.26C200.43,15,201,14,201.51,13a9.46,9.46,0,0,0,1.09-3.77,6.66,6.66,0,0,0-.19-1.68,4.44,4.44,0,0,0-.19-.62,4.35,4.35,0,0,0-.25-.59,4.58,4.58,0,0,0-.37-.69l-.31-.44a9.72,9.72,0,0,0-2.73-2.48c-.25-.15-.5-.3-.76-.44l-.64-.31a17.72,17.72,0,0,0-1.85-.71l-.55-.15-.67-.15a.51.51,0,0,0-.17,0,4.46,4.46,0,0,0-.7-.12,3.93,3.93,0,0,0-.48-.06,6.62,6.62,0,0,0-.77,0h0l-.17,0c-.23,0-.48,0-.68,0H191l-.4,0-.48.08h-.08l-3.75.64,0,.08h0l1.51,3c0,.07,0,.15,0,.26s0,.05,0,.07,0,.15,0,.24a11.11,11.11,0,0,1-.28,1.1l-.12.4-.22.62c-.09.22-.17.46-.27.71l-.57,1.42c-.61,1.48-1.34,3.13-2.2,5-1,2.13-2.09,4.46-3.57,7.56l-.11-.21c-.06-.12-.13-.25-.2-.36l-.19-.29c-.1-.14-.21-.29-.33-.44a5.23,5.23,0,0,0-.4-.43,11,11,0,0,0-1.61-1.33l-.73-.45a3,3,0,0,0-.39-.22l-.73-.38h0c-.25-.12-.5-.22-.76-.33h0l-.67-.26-.65-.21-.23-.08-.1,0-.17-.05-.21-.05c-.18-.06-.37-.09-.54-.14a.76.76,0,0,0-.16,0l-.52-.11a9.1,9.1,0,0,0-.95-.14h0l-2.67-.22h0l-.43,2.64a.79.79,0,0,1,0,.13,1.49,1.49,0,0,1,0,.18c0,.1-.06.22-.11.36a.09.09,0,0,1,0,.05l-2.56.23,1.88,1.56a.65.65,0,0,1,0,.13c-.58,1.35-1.27,2.81-2,4.31s-1.58,3-2.41,4.45a33.61,33.61,0,0,1-2,3.16c-.52.66-1.07,1.35-1.64,2-.19.23-.38.44-.57.65.39-.71.79-1.45,1.2-2.18.65-1.15,1.25-2.27,1.8-3.34a31,31,0,0,0,1.49-3.3,9.7,9.7,0,0,0,.71-3.44,5.31,5.31,0,0,0-.31-1.82,7.71,7.71,0,0,0-.32-.73,6.77,6.77,0,0,0-.77-1.12l-.09-.09-.1-.11-.29-.29c-.21-.2-.42-.38-.64-.56a7.3,7.3,0,0,0-.72-.52c-.24-.17-.5-.32-.76-.47l-.41-.21-.13-.07-.52-.24-.23-.09c-.23-.11-.47-.19-.71-.28s-.45-.15-.67-.21a1.78,1.78,0,0,0-.36-.1,4.25,4.25,0,0,0-.51-.14l-.1,0-.09,0-.51-.11-.78-.14a15.15,15.15,0,0,0-2.1-.15h-1.56a16.17,16.17,0,0,0-.86-2.6,18.33,18.33,0,0,0-3.73-5.66,20.79,20.79,0,0,0-5.34-4,33.64,33.64,0,0,0-6.12-2.48A37,37,0,0,0,128.06.3a50.1,50.1,0,0,0-5.4-.3c-.35,0-.7,0-1,0a29.62,29.62,0,0,0-3.56.27,9.66,9.66,0,0,0-3.84,1.26l-3,1.8L113.54,6l.07.07a4.58,4.58,0,0,1,.08.83,16.49,16.49,0,0,1-.77,4.91,71.08,71.08,0,0,1-2.3,6.74c-.92,2.37-2,4.87-3.1,7.46s-2.21,5.16-3.16,7.55-1.79,4.81-2.41,7a19.87,19.87,0,0,0-1,6.27,8.87,8.87,0,0,0,1.82,5.4,11,11,0,0,0,3.57,2.93,13.52,13.52,0,0,0,4.11,1.31,22.42,22.42,0,0,0,3.08.25h.4a30.12,30.12,0,0,0,9.28-1.81,41.62,41.62,0,0,0,8.59-4.31,48.31,48.31,0,0,0,7.58-6.11c.45-.44.9-.88,1.32-1.34a15.27,15.27,0,0,0-.35,3.25c0,.18,0,.36,0,.54a9.87,9.87,0,0,0,.16,1.2l0,.18c.06.23.11.48.18.71a9.9,9.9,0,0,0,.34,1,9.29,9.29,0,0,0,2,3,9.46,9.46,0,0,0,3,2.06,8.79,8.79,0,0,0,1.8.58l.38.07a9.8,9.8,0,0,0,1.54.12h.07a9.92,9.92,0,0,0,1.31-.11,1.35,1.35,0,0,0,.28,0,11.24,11.24,0,0,0,3.23-1.1c.27-.14.54-.28.81-.44l.41-.25.42-.26a1.92,1.92,0,0,0,.17-.13,10.81,10.81,0,0,0,1-.73l.57-.5.56-.54.09.15c0,.08.1.17.16.25a.29.29,0,0,0,0,.08l.21.32a.6.6,0,0,0,.09.15,1.34,1.34,0,0,0,.11.14,2,2,0,0,0,.17.23A8.65,8.65,0,0,0,162,55.19c.2.12.39.23.6.33a5.38,5.38,0,0,0,.66.27,5.49,5.49,0,0,0,1.07.31,9.44,9.44,0,0,0,1.53.16h.06a10.59,10.59,0,0,0,5.69-1.73c.4-.24.8-.51,1.19-.8.19-.13.38-.28.57-.43s.38-.3.56-.46l.56-.48.49-.45.19.23.34.41.35.36c.24.24.49.46.75.69l.4.3a7.66,7.66,0,0,0,.84.56c.28.17.58.33.88.48a9.75,9.75,0,0,0,4.05.91h.14l.52,0a10.19,10.19,0,0,0,1.7-.23l.22,0c.36-.08.72-.18,1.08-.29s.8-.28,1.2-.44a16.32,16.32,0,0,0,4.7-3.11c.33-.29.65-.61,1-.94A9.34,9.34,0,0,0,194.93,53h0a4.86,4.86,0,0,0,.41.38A12,12,0,0,0,199,55.5a10.88,10.88,0,0,0,1.22.39c.21.07.43.11.65.16a5,5,0,0,0,.67.13l.7.11a5.66,5.66,0,0,0,.72.08,15.31,15.31,0,0,0,1.53.1H205a17.74,17.74,0,0,0,3.29-.3l.45-.09a15,15,0,0,0,3.4-1.14c.37-.18.74-.37,1.09-.58A20.2,20.2,0,0,0,215,53.26c.42-.3.83-.62,1.22-1l.4-.34.65-.62c.22-.2.43-.42.64-.65l.18-.2c.06-.07.11-.14.18-.21l0,.11c.06.16.11.32.18.48a7.06,7.06,0,0,0,.39.89,9.84,9.84,0,0,0,1,1.74,11.1,11.1,0,0,0,1,1.16l.37.35a9.6,9.6,0,0,0,.79.64,9.21,9.21,0,0,0,4,1.66l.45.06.46,0,.16,0h.45a10.61,10.61,0,0,0,3-.42c.25-.07.5-.15.73-.24a11,11,0,0,0,2.13-1,19.61,19.61,0,0,0,4.32-3.59,7.31,7.31,0,0,0,.4.79,8,8,0,0,0,.43.69h0l.15.2.14.21a1.46,1.46,0,0,0,.16.19,1.16,1.16,0,0,0,.16.21h0c.22.26.46.51.69.75h0l.28.27h0l.29.25.24.2.06,0h0l.3.22a8,8,0,0,0,.87.56l.12.07a7.58,7.58,0,0,0,.86.42,9.42,9.42,0,0,0,3.3.75l.56,0A10.77,10.77,0,0,0,253.17,56a20.77,20.77,0,0,0,2.56-2.16l.6-.61a23.17,23.17,0,0,0,1.66-2l.46-.65a10.88,10.88,0,0,0,.46,1.36,11.83,11.83,0,0,0,2.56,3.81,12.93,12.93,0,0,0,3.6,2.55,11.66,11.66,0,0,0,4.36,1.18c.42,0,.84,0,1.26,0a18.34,18.34,0,0,0,8.67-2.2,28.46,28.46,0,0,0,6.07-4.39,8.63,8.63,0,0,0,.7,1.94,10.34,10.34,0,0,0,3.08,3.68,14.41,14.41,0,0,0,4.27,2.16,23.15,23.15,0,0,0,4.77.92c.67.05,1.37.08,2.06.08a25.87,25.87,0,0,0,4.44-.39,22,22,0,0,0,6.19-2,16.23,16.23,0,0,0,5-3.75,10.5,10.5,0,0,0,2.64-6.14,8.15,8.15,0,0,0-.9-4.93,4.25,4.25,0,0,0-.27-.46l1-1.39a24.09,24.09,0,0,0,2.41-4.37,17.1,17.1,0,0,0,1.33-5.06A11.19,11.19,0,0,0,322,30.08Z"/><path class="cls-2" d="M3,52.73a12.44,12.44,0,0,1,.68-3.47q.76-2.68,2-6.41l2.59-8.06q1.41-4.32,2.6-8.41t1.93-7.49a19,19,0,0,0,.57-5.28,19,19,0,0,0-.27-2,5.45,5.45,0,0,0-.83-2,5.65,5.65,0,0,1,1.72-.4,10.18,10.18,0,0,1,3.19.28,11.59,11.59,0,0,1,3.18,1.28A8.78,8.78,0,0,1,22.8,13,5.68,5.68,0,0,1,24,16a13.64,13.64,0,0,1-.33,3.31c-.27,1.48-.66,3.15-1.15,5s-1,3.84-1.65,5.94S19.59,34.41,19,36.41s-1.23,3.87-1.8,5.62-1,3.21-1.37,4.38a31.27,31.27,0,0,1,3.51-.49,29.48,29.48,0,0,1,5,0A16.12,16.12,0,0,1,28.88,47a8.89,8.89,0,0,1,3.5,2.47A7,7,0,0,1,34,53.68a13.64,13.64,0,0,1-.26,3.66,39.57,39.57,0,0,0-6.29-.88,44.27,44.27,0,0,0-5.78.08,43,43,0,0,0-7.21,1.2q-3.34.87-6.3,1.87A2.86,2.86,0,0,1,6,59.05a6.25,6.25,0,0,1-1.48-1.78,10.69,10.69,0,0,1-1-2.31A18.53,18.53,0,0,1,3,52.73Z"/><path class="cls-3" d="M16.23,48.68a16.56,16.56,0,0,1,4.52-1,15.09,15.09,0,0,1,2.33-.07,14.33,14.33,0,0,1,2.34.17,9.62,9.62,0,0,1,4.41,1.8,5.34,5.34,0,0,1,1.52,1.9,4.93,4.93,0,0,1,.32,2.32,6.35,6.35,0,0,0-.82-2.06,5.57,5.57,0,0,0-1.55-1.43,7.82,7.82,0,0,0-1.95-.88,13.9,13.9,0,0,0-2.12-.5c-.36-.07-.73-.12-1.09-.16L23,48.75l-1.12-.09c-.37,0-.74,0-1.12,0C19.28,48.57,17.77,48.63,16.23,48.68Z"/><path class="cls-3" d="M15.38,11.51a8.64,8.64,0,0,1,4.19,1.18,6.3,6.3,0,0,1,1.7,1.48,3.77,3.77,0,0,1,.83,2.23,19.84,19.84,0,0,1-.62,4.35L21,22.87l-.24,1.06L20.49,25,19.3,29.13c-.42,1.37-.87,2.74-1.33,4.1-.9,2.74-1.93,5.43-3,8.09.65-2.81,1.43-5.58,2.16-8.35l2.27-8.29.3-1,.24-1,.5-2.07c.16-.7.36-1.39.5-2.08a15.31,15.31,0,0,0,.29-2.05,3,3,0,0,0-.54-1.78,5.59,5.59,0,0,0-1.41-1.46,8.14,8.14,0,0,0-1.82-1A11.85,11.85,0,0,0,15.38,11.51Z"/><path class="cls-4" d="M35.12,48.49a18,18,0,0,1,.3-5,17.67,17.67,0,0,1,1.52-4.43c0-.21,0-.32,0-.54a11.78,11.78,0,0,1,1.26-6.32,17.82,17.82,0,0,1,4.05-5.26,21.86,21.86,0,0,1,5.72-3.7,17.91,17.91,0,0,1,6.23-1.61,12.06,12.06,0,0,1,3.67.31,7.71,7.71,0,0,1,5.28,4.36,11.7,11.7,0,0,1,1,4.32A24.3,24.3,0,0,1,63,38.9a30,30,0,0,1-3.86,8.21A25.51,25.51,0,0,1,53,53.53a15.4,15.4,0,0,1-8.05,2.94A8.93,8.93,0,0,1,41.53,56a10.31,10.31,0,0,1-3.07-1.59,8.82,8.82,0,0,1-2.29-2.6A7.53,7.53,0,0,1,35.12,48.49ZM54.59,33.55a3.57,3.57,0,0,0-1.32-2.86,4.14,4.14,0,0,0-2.79-.76,8,8,0,0,0-2.82.76,10.43,10.43,0,0,0-2.75,1.86l.37,0a7.78,7.78,0,0,1,3.18.46,9.45,9.45,0,0,1,3.15,2,9.67,9.67,0,0,0-3.23,1.94A13.11,13.11,0,0,0,46,39.7a13.29,13.29,0,0,0-1.48,3.1,7.45,7.45,0,0,0-.42,2.79,2.78,2.78,0,0,0,.61,1.66,1.74,1.74,0,0,0,1.56.56,4.83,4.83,0,0,0,3-1.62A17.82,17.82,0,0,0,52,42.48a23,23,0,0,0,2-4.58A12.18,12.18,0,0,0,54.59,33.55Z"/><path class="cls-3" d="M48.88,26a13.23,13.23,0,0,1,6-1.88,8.81,8.81,0,0,1,3.24.4,5.68,5.68,0,0,1,2.73,2,7.52,7.52,0,0,1,1.27,3.07,13.82,13.82,0,0,1,.15,3.2,18.68,18.68,0,0,1-1.48,6.1,31.84,31.84,0,0,0,.57-6.12,9.6,9.6,0,0,0-1.44-5.57,4.66,4.66,0,0,0-2.18-1.65,9,9,0,0,0-2.85-.53A18.66,18.66,0,0,0,48.88,26Z"/><path class="cls-3" d="M39.47,35.25c.63-.16,1.25-.29,1.88-.4s1.26-.22,1.89-.3,1.26-.16,1.89-.23a6.7,6.7,0,0,1,1,0,6.06,6.06,0,0,1,1,.15l1.06.24-.82.75a21.36,21.36,0,0,0-2.85,3.06c-.42.56-.83,1.15-1.2,1.75s-.73,1.23-1.08,1.88A10,10,0,0,1,42.84,40a12.79,12.79,0,0,1,2.26-3.83,13.18,13.18,0,0,1,1.58-1.59l.24,1a4.75,4.75,0,0,0-.84-.14,8.47,8.47,0,0,0-.88,0c-.63,0-1.27,0-1.9,0s-1.27,0-1.91,0S40.11,35.32,39.47,35.25Z"/><path class="cls-5" d="M62.3,47.4a6,6,0,0,1,.92-3.6,17.17,17.17,0,0,1,2.37-3,9,9,0,0,0,2.08,2.68,10.24,10.24,0,0,0,2.72,1.7,13.66,13.66,0,0,0,3,.87,13.23,13.23,0,0,0,2.91.18A9,9,0,0,0,80,45.33c1-.51,1.5-1.17,1.47-2,0-.45-.39-.78-1.09-1a18,18,0,0,0-2.63-.6c-1-.17-2.18-.38-3.4-.62a21.64,21.64,0,0,1-3.42-1,8.43,8.43,0,0,1-2.69-1.62A3.74,3.74,0,0,1,67,35.85a9.38,9.38,0,0,1,1.45-5.51,18.31,18.31,0,0,1,4.19-4.77,22.48,22.48,0,0,1,5.8-3.41,18.82,18.82,0,0,1,6.25-1.44,7.4,7.4,0,0,1,2.8.33,4.73,4.73,0,0,1,1.87,1.19,4.79,4.79,0,0,1,1.1,1.86,8.59,8.59,0,0,1,.41,2.29,14.25,14.25,0,0,1-.54,4.3,20.46,20.46,0,0,1-1.58,4.09,6.09,6.09,0,0,0-2.39-3.5,5.57,5.57,0,0,0-3.15-.86,6.45,6.45,0,0,0-2,.39,7.42,7.42,0,0,0-1.66.87,5.69,5.69,0,0,0-1.14,1.09,1.69,1.69,0,0,0-.41,1.11,1.78,1.78,0,0,0,.9,1.5,7.54,7.54,0,0,0,2.1.87c.83.22,1.73.45,2.7.66a10.27,10.27,0,0,1,2.71,1,7,7,0,0,1,2.14,1.85,5.5,5.5,0,0,1,1,3.14,7.65,7.65,0,0,1-1.3,4.7,13.16,13.16,0,0,1-3.67,3.61,19.83,19.83,0,0,1-5.12,2.43,23.14,23.14,0,0,1-5.69,1,18.78,18.78,0,0,1-4.2-.23A11.09,11.09,0,0,1,66,53.25a7.49,7.49,0,0,1-2.57-2.34A6.83,6.83,0,0,1,62.3,47.4Z"/><path class="cls-3" d="M83.25,39.18a3.41,3.41,0,0,1,1.62,0A3.82,3.82,0,0,1,87,40.56c.08.12.16.23.24.36a2.16,2.16,0,0,1,.19.45A2.53,2.53,0,0,1,87.25,43a11.62,11.62,0,0,0-.7-1.3,2,2,0,0,0-.18-.21l-.24-.23a5.15,5.15,0,0,0-.5-.43,12.93,12.93,0,0,0-1.12-.8C84.11,39.78,83.69,39.52,83.25,39.18Z"/><path class="cls-3" d="M79.35,24.3a11.7,11.7,0,0,1,3.48-1.49,11.09,11.09,0,0,1,1.9-.32,5.92,5.92,0,0,1,2,.14,3.18,3.18,0,0,1,1,.5,2.57,2.57,0,0,1,.75.86,3.51,3.51,0,0,1,.36,1A4.9,4.9,0,0,1,89,26a8.25,8.25,0,0,1-.78,3.73,17.41,17.41,0,0,0-.12-3.63,4.57,4.57,0,0,0-.53-1.55A1.81,1.81,0,0,0,87.1,24a2.09,2.09,0,0,0-.66-.3,5.48,5.48,0,0,0-1.66-.16c-.59,0-1.19.06-1.79.11C81.79,23.83,80.59,24.06,79.35,24.3Z"/><path class="cls-6" d="M114,53.29a17.56,17.56,0,0,1-3-.22,10.53,10.53,0,0,1-3.22-1,7.84,7.84,0,0,1-2.62-2.16A6,6,0,0,1,104,46.2a17.44,17.44,0,0,1,.83-5.36q.9-3.11,2.32-6.71c.95-2.39,2-4.88,3.13-7.45s2.18-5.1,3.15-7.57,1.76-4.81,2.38-7a19.2,19.2,0,0,0,.88-5.77,7.35,7.35,0,0,0-.16-1.42,2.89,2.89,0,0,0-.72-1.35,7.14,7.14,0,0,1,2.73-.85,28.6,28.6,0,0,1,3.24-.26,46.66,46.66,0,0,1,6.07.27,34.08,34.08,0,0,1,6.08,1.2,29.33,29.33,0,0,1,5.58,2.25A18.28,18.28,0,0,1,144.1,9.6a15.73,15.73,0,0,1,3.14,4.79,16,16,0,0,1,1.19,6.26,20.08,20.08,0,0,1-1.36,7.13,33.92,33.92,0,0,1-3.84,7.3,46,46,0,0,1-5.76,6.82,45.86,45.86,0,0,1-7.13,5.74,38.15,38.15,0,0,1-8,4A26.39,26.39,0,0,1,114,53.29Zm2.44-11c0,.36.11.54.32.53A29,29,0,0,0,124,39.17a41.36,41.36,0,0,0,6.54-5.46,29,29,0,0,0,4.72-6.34,12.89,12.89,0,0,0,1.76-6.3A7.41,7.41,0,0,0,134.92,16c-1.36-1.47-3.61-2.57-6.73-3.27-1,2.32-1.89,4.56-2.84,6.74s-1.9,4.43-2.88,6.73-2,4.76-3,7.37S117.47,39.08,116.42,42.26Z"/><path class="cls-3" d="M121.8,4.77a33.11,33.11,0,0,1,8.2.14,27.26,27.26,0,0,1,7.9,2.41,15.07,15.07,0,0,1,6.33,5.4,12.89,12.89,0,0,1,1.63,3.84,13.89,13.89,0,0,1,.26,4.11,17.32,17.32,0,0,0-.81-4,14,14,0,0,0-1.83-3.49,13.72,13.72,0,0,0-2.73-2.81,17.13,17.13,0,0,0-3.35-2.06,32.72,32.72,0,0,0-7.56-2.56A60.92,60.92,0,0,0,121.8,4.77Z"/><path class="cls-7" d="M165.94,52.9a4.63,4.63,0,0,1-2.4-.64,6.07,6.07,0,0,1-1.81-1.73A9.06,9.06,0,0,1,160.51,48a14.35,14.35,0,0,1-.58-3.12,18,18,0,0,1-5.06,5.89A9.09,9.09,0,0,1,150,52.44a6.51,6.51,0,0,1-2.61-.53,6.59,6.59,0,0,1-3.5-3.54,6.85,6.85,0,0,1-.51-2.54,14.32,14.32,0,0,1,.63-4q.65-2.24,1.61-4.73t2.1-5.08q1.15-2.58,2.15-5c.67-1.6,1.24-3.11,1.7-4.55a14,14,0,0,0,.76-3.73,12.44,12.44,0,0,1,2.75.32,11.29,11.29,0,0,1,2.66.94,6.83,6.83,0,0,1,2,1.45,2.65,2.65,0,0,1,.81,1.88,7.08,7.08,0,0,1-.53,2.42,28.83,28.83,0,0,1-1.35,3c-.55,1.07-1.14,2.15-1.75,3.24s-1.19,2.15-1.74,3.18A29.21,29.21,0,0,0,153.84,38a6.22,6.22,0,0,0-.51,2.16,1.93,1.93,0,0,0,.13.72,1,1,0,0,0,.55.54,4.16,4.16,0,0,0,2.53-.7A12.86,12.86,0,0,0,158.92,39,21,21,0,0,0,161,36.81c.66-.79,1.23-1.51,1.72-2.15A31.48,31.48,0,0,0,165,31.18c.84-1.47,1.67-3,2.47-4.56s1.52-3.07,2.12-4.5a15.35,15.35,0,0,0,1.1-3.3,13.42,13.42,0,0,1,4.6,1.46,9,9,0,0,1,2.06,1.51,2.56,2.56,0,0,1,.84,1.88A8.35,8.35,0,0,1,177,27.2q-1.22,2.27-2.72,4.91a59.62,59.62,0,0,0-2.7,5.43,13.07,13.07,0,0,0-1.23,5.08,2.78,2.78,0,0,0,.39,1.7,1.27,1.27,0,0,0,1.06.49,4.27,4.27,0,0,0,2-.62,17.93,17.93,0,0,0,2.3-1.49c.75-.58,1.44-1.16,2.06-1.74a11.38,11.38,0,0,0,1.3-1.35,35.65,35.65,0,0,1-2.28,4.46,26.38,26.38,0,0,1-3.17,4.3,18.22,18.22,0,0,1-3.85,3.25A7.93,7.93,0,0,1,165.94,52.9Z"/><path class="cls-3" d="M172.32,21.54a4.62,4.62,0,0,1,2.17.37,5,5,0,0,1,1,.55,4.09,4.09,0,0,1,.44.37,2.08,2.08,0,0,1,.21.21l.13.15.06.09a.65.65,0,0,1,.09.19l0,.1v.08a2.4,2.4,0,0,1-.23.79,4.14,4.14,0,0,1-.35.62,4.41,4.41,0,0,1-.94,1c.05-.48.15-.91.23-1.34l.12-.62a2.25,2.25,0,0,0,.06-.5l0,.18c0,.09,0,.06,0,.07h0l-.05-.05-.17-.15-.36-.3c-.25-.2-.51-.39-.78-.58C173.46,22.4,172.9,22,172.32,21.54Z"/><path class="cls-3" d="M154.3,21.28a4,4,0,0,1,1.65,0,4.54,4.54,0,0,1,1.55.6,3.23,3.23,0,0,1,.68.54,3.31,3.31,0,0,1,.3.34,1.51,1.51,0,0,1,.17.3.54.54,0,0,1,0,.15,1,1,0,0,1,0,.15l0,.12a2.84,2.84,0,0,1-.83,1.47c0-.56,0-1.09-.08-1.52v-.08s0,0,0,.06v.05s0,0-.06,0l-.25-.2c-.18-.13-.37-.26-.57-.38-.39-.24-.82-.48-1.25-.73S154.76,21.62,154.3,21.28Z"/><path class="cls-8" d="M197.26,37.79a33,33,0,0,1-3.14,6.78,21.61,21.61,0,0,1-3.68,4.56,13.49,13.49,0,0,1-3.87,2.57,9.31,9.31,0,0,1-3.71.8,7,7,0,0,1-2.84-.64,7.16,7.16,0,0,1-2.32-1.73,7.74,7.74,0,0,1-1.55-2.68,10,10,0,0,1-.55-3.51,20.22,20.22,0,0,1,1.12-5.75c.74-2.29,1.66-4.73,2.78-7.33s2.33-5.25,3.64-8,2.53-5.32,3.67-7.77,2.08-4.63,2.84-6.58a14.27,14.27,0,0,0,1.17-4.49,2,2,0,0,0-.11-.85c.21,0,.42-.06.63-.08s.41,0,.62,0a9.44,9.44,0,0,1,2.59.44,11.22,11.22,0,0,1,2.56,1.15A6.88,6.88,0,0,1,199,6.42a3.55,3.55,0,0,1,.73,2.23,6.75,6.75,0,0,1-.81,2.59c-.52,1.08-1.17,2.28-1.94,3.62l-2.51,4.34q-1.35,2.34-2.5,4.74-.76,1.62-1.74,3.87t-1.8,4.61c-.55,1.56-1,3.08-1.42,4.54a16.08,16.08,0,0,0-.61,3.66c0,1.37.38,2.06,1.19,2.08a7.59,7.59,0,0,0,2.54-.44,16.52,16.52,0,0,0,2.62-1.2,23.2,23.2,0,0,0,2.44-1.58A21.62,21.62,0,0,0,197.26,37.79Z"/><path class="cls-3" d="M193,5.54a6.32,6.32,0,0,1,2.89.58,4.9,4.9,0,0,1,1.31.85,4.84,4.84,0,0,1,.55.62,1.75,1.75,0,0,1,.3,1,1.84,1.84,0,0,1-.08.49c0,.14-.08.26-.12.38s-.2.48-.31.7a13.59,13.59,0,0,1-.75,1.24A17.83,17.83,0,0,1,195,13.7,18.18,18.18,0,0,1,196,11c.16-.43.41-.86.56-1.28.08-.21.16-.42.23-.63l.09-.29a.79.79,0,0,0,0-.21.53.53,0,0,0-.1-.35,3.87,3.87,0,0,0-.37-.48,6.17,6.17,0,0,0-1-.84A19,19,0,0,0,193,5.54Z"/><path class="cls-9" d="M221,32.37a7.31,7.31,0,0,0-1.92-3.19,3.92,3.92,0,0,0-2.49-1,6.51,6.51,0,0,0-3.8,1.3,18.57,18.57,0,0,0-3.73,3.41,23.48,23.48,0,0,0-2.88,4.31A9.57,9.57,0,0,0,205,41.25a2.92,2.92,0,0,0,3.27,3.24,10.63,10.63,0,0,0,3.4-.56,21.21,21.21,0,0,0,3.84-1.64A23.77,23.77,0,0,0,219,40a9,9,0,0,0,2.33-2.58,27,27,0,0,1-2,5.74,21,21,0,0,1-3.47,5.12,16,16,0,0,1-4.89,3.61,13.7,13.7,0,0,1-6.32,1.24,14,14,0,0,1-4.53-.78A8.8,8.8,0,0,1,197,50.45a6.86,6.86,0,0,1-1.71-2.76,10.45,10.45,0,0,1-.47-3.47,17,17,0,0,1,1.06-5.4,31.55,31.55,0,0,1,2.7-5.69,33.42,33.42,0,0,1,4-5.39,35.19,35.19,0,0,1,4.93-4.5,22.81,22.81,0,0,1,5.47-3,14.12,14.12,0,0,1,5.63-1c2.4.08,4.11.65,5.14,1.69a5,5,0,0,1,1.47,3.82,9.09,9.09,0,0,1-1.17,3.92A13.06,13.06,0,0,1,221,32.37Z"/><path class="cls-3" d="M213.85,22.36a9,9,0,0,1,3.61-1.28,8.87,8.87,0,0,1,3.94.33,3.65,3.65,0,0,1,1,.55,3.87,3.87,0,0,1,.4.42,3.08,3.08,0,0,1,.31.46,3.25,3.25,0,0,1,.29,2.14,6.58,6.58,0,0,1-1.83,3.4,10.49,10.49,0,0,0,.93-3.49,2.52,2.52,0,0,0-.34-1.5l-.22-.3a2.88,2.88,0,0,0-.26-.25,2.43,2.43,0,0,0-.66-.35,6.87,6.87,0,0,0-1.68-.38,13.35,13.35,0,0,0-1.79-.13A19.47,19.47,0,0,0,213.85,22.36Z"/><path class="cls-10" d="M220.61,45.62A13.9,13.9,0,0,1,221.85,41q1.17-2.8,2.83-6.1c1.11-2.2,2.27-4.48,3.5-6.84s2.32-4.6,3.27-6.74h.65c.23,0,.45,0,.65,0a12,12,0,0,1,4.75,1,2.82,2.82,0,0,1,1.76,2.84,6.17,6.17,0,0,1-.75,2.18c-.48,1-1.06,2.08-1.76,3.34s-1.45,2.59-2.27,4-1.57,2.71-2.26,4-1.27,2.5-1.74,3.59a8,8,0,0,0-.75,2.55c0,.8.32,1.22,1.05,1.25a5.15,5.15,0,0,0,2.19-.54,23.34,23.34,0,0,0,2.78-1.45c1-.59,1.89-1.2,2.8-1.84s1.66-1.22,2.26-1.72a26.94,26.94,0,0,1-1.8,4.4,21.41,21.41,0,0,1-3,4.47,16.45,16.45,0,0,1-4,3.4,8.13,8.13,0,0,1-4.7,1.26,6.08,6.08,0,0,1-2.91-.81,7.06,7.06,0,0,1-2.14-1.93,8.45,8.45,0,0,1-1.3-2.68A9.46,9.46,0,0,1,220.61,45.62Zm20.61-27.8a16.59,16.59,0,0,1-3.12.22,4.44,4.44,0,0,1-3-1,2.92,2.92,0,0,1-.81-2.28,7.24,7.24,0,0,1,.95-3,15.5,15.5,0,0,1,2.19-3.08,10.22,10.22,0,0,1,4.94,1.11,2.84,2.84,0,0,1,1.36,2.7Q243.6,14.66,241.22,17.82Z"/><path class="cls-3" d="M232.94,23.65a3.83,3.83,0,0,1,1.18-.28,4.73,4.73,0,0,1,1.19.06,4.55,4.55,0,0,1,1.17.37,2.63,2.63,0,0,1,.58.36,1,1,0,0,1,.33.49.9.9,0,0,1,0,.45l-.87,0h0l.44.44a.43.43,0,0,0,.32-.15.49.49,0,0,0,.09-.15c0-.05,0,0,0,0h0v0l0,.05,0,.09c0,.06-.07.11-.1.16a2.32,2.32,0,0,1-.22.3,2.9,2.9,0,0,1-.53.52,5.74,5.74,0,0,1,0-.73l0-.33V25h0v0a.48.48,0,0,1,.08-.16.42.42,0,0,1,.33-.15h.35l.09.42h0l-.87,0c0-.09,0-.16,0-.11s0,.08,0,.06l-.41-.16c-.32-.12-.65-.23-1-.34s-.68-.23-1-.37A9.85,9.85,0,0,1,232.94,23.65Z"/><path class="cls-3" d="M238.43,11.06a4.77,4.77,0,0,1,1.88-.14,3.06,3.06,0,0,1,1,.29,1.69,1.69,0,0,1,.27.17,1,1,0,0,1,.3.36,1.39,1.39,0,0,1,.1.73,4,4,0,0,1-.72,1.85,5,5,0,0,1-1.33,1.33c.14-.63.34-1.19.51-1.74a7.48,7.48,0,0,0,.39-1.53c0-.11,0-.22,0-.15s0,0,0,0l-.1-.08a3.58,3.58,0,0,0-.68-.36C239.56,11.56,239,11.36,238.43,11.06Z"/><path class="cls-11" d="M260.64,38.81a32.69,32.69,0,0,1-1.82,4.9A29.65,29.65,0,0,1,255.73,49a18.35,18.35,0,0,1-4.16,4.14,7.85,7.85,0,0,1-5.07,1.51,6.48,6.48,0,0,1-3-.85,7.15,7.15,0,0,1-2.21-1.95A9.06,9.06,0,0,1,240,49.07a9.56,9.56,0,0,1-.39-3.32,17.65,17.65,0,0,1,.72-4.15,37.92,37.92,0,0,1,1.49-4.23c.58-1.39,1.18-2.72,1.82-4s1.21-2.45,1.72-3.52a4.11,4.11,0,0,1-1.72-2,5.88,5.88,0,0,1-.46-2.54A4.26,4.26,0,0,1,244,22.8a19.43,19.43,0,0,0,2.82-.07,17.45,17.45,0,0,0,2.21-.28q2.37-3.69,4.24-7.29a67.49,67.49,0,0,0,3.2-7,8.85,8.85,0,0,1,2.46.66,10.18,10.18,0,0,1,2.36,1.35A6.8,6.8,0,0,1,263,12.05a4.06,4.06,0,0,1,.58,2.37,4.67,4.67,0,0,1-.59,1.94c-.35.64-.74,1.31-1.17,2s-.86,1.38-1.28,2.08a9.44,9.44,0,0,0-.93,2.13,2.43,2.43,0,0,0,.47,0,3.53,3.53,0,0,1,.46,0,6.29,6.29,0,0,1,2.66.65,4.09,4.09,0,0,1,1.5,1.33,4.29,4.29,0,0,1,.63,1.74,9.18,9.18,0,0,1,.08,1.79c0,.53-.09,1-.15,1.42a3.52,3.52,0,0,1-.25.93,9.6,9.6,0,0,0-1.56-.22l-1.57-.1c-1.14-.06-2.3-.08-3.45-.05a32.86,32.86,0,0,0-3.59.31c-.31.43-.78,1.17-1.39,2.23s-1.23,2.23-1.85,3.5-1.19,2.58-1.69,3.89a11.38,11.38,0,0,0-.82,3.35c-.07,1.29.47,2,1.6,2a5.22,5.22,0,0,0,2.17-.46,17.39,17.39,0,0,0,2.61-1.37,20.69,20.69,0,0,0,2.73-2.09A19.83,19.83,0,0,0,260.64,38.81Z"/><path class="cls-3" d="M259.5,24.87a4.34,4.34,0,0,1,.4-.17l.38-.15h0a3.43,3.43,0,0,1,1.32-.06,2.21,2.21,0,0,1,.71.22,2.26,2.26,0,0,1,.61.43,1.62,1.62,0,0,1,.27.35,2.32,2.32,0,0,1,.16.36,1.72,1.72,0,0,1,.08.74,3,3,0,0,1-.35,1.26c-.19-.41-.33-.79-.47-1.16a2.15,2.15,0,0,0-.21-.43l-.13-.18-.12-.11a4.18,4.18,0,0,0-.38-.25,2.66,2.66,0,0,0-.43-.18l-1.08-.37h0a3,3,0,0,1-.43-.11A2.57,2.57,0,0,1,259.5,24.87Z"/><path class="cls-3" d="M257.88,10.85a4.72,4.72,0,0,1,2.09.61,4,4,0,0,1,1.64,1.62,2.33,2.33,0,0,1,.22,1.32,2.58,2.58,0,0,1-.49,1.14,10.3,10.3,0,0,1-1.46,1.57,10.3,10.3,0,0,1,.66-2,1.66,1.66,0,0,0,0-1.49,5.09,5.09,0,0,0-1.13-1.41C259,11.74,258.44,11.32,257.88,10.85Z"/><path class="cls-12" d="M261.07,46.85a18.2,18.2,0,0,1,3.07-9.1c0-.21,0-.32,0-.54a11.83,11.83,0,0,1,2.1-6.09A17.77,17.77,0,0,1,271,26.45a21.93,21.93,0,0,1,6.17-2.89,17.86,17.86,0,0,1,6.39-.76,12,12,0,0,1,3.6.81,7.65,7.65,0,0,1,4.64,5,11.57,11.57,0,0,1,.4,4.41A24.44,24.44,0,0,1,290,41.1a29.77,29.77,0,0,1-4.94,7.62,25.2,25.2,0,0,1-7,5.53,15.25,15.25,0,0,1-8.37,1.82,8.76,8.76,0,0,1-3.29-.88,10.29,10.29,0,0,1-2.83-2,8.86,8.86,0,0,1-1.92-2.88A7.69,7.69,0,0,1,261.07,46.85Zm21.32-12.18a3.61,3.61,0,0,0-.93-3,4.12,4.12,0,0,0-2.67-1.13,8,8,0,0,0-2.9.38,10.51,10.51,0,0,0-3,1.46l.37,0a7.65,7.65,0,0,1,3.09.88,9.46,9.46,0,0,1,2.85,2.38,10,10,0,0,0-3.46,1.49A13.81,13.81,0,0,0,273,39.6a13.42,13.42,0,0,0-1.88,2.88,7.61,7.61,0,0,0-.79,2.71,2.77,2.77,0,0,0,.38,1.72,1.76,1.76,0,0,0,1.47.77,4.78,4.78,0,0,0,3.17-1.21,17.23,17.23,0,0,0,3.24-3.3,23.1,23.1,0,0,0,2.58-4.27A12.63,12.63,0,0,0,282.39,34.67Z"/><path class="cls-3" d="M277.82,25.78a11.93,11.93,0,0,1,6.47-1.12,9.43,9.43,0,0,1,2.21.56,6.18,6.18,0,0,1,2,1.26,5.48,5.48,0,0,1,1.26,2,7.29,7.29,0,0,1,.15,4.4,10.49,10.49,0,0,0-1-4,5.15,5.15,0,0,0-2.84-2.53,11.78,11.78,0,0,0-4-.76A28,28,0,0,0,277.82,25.78Z"/><path class="cls-13" d="M288.16,49.44a6,6,0,0,1,1.4-3.45,16.9,16.9,0,0,1,2.75-2.67,9,9,0,0,0,1.7,2.93,10,10,0,0,0,2.47,2,13.21,13.21,0,0,0,2.83,1.27,13.83,13.83,0,0,0,2.86.58,9.13,9.13,0,0,0,3.8-.38c1.08-.37,1.65-1,1.72-1.76,0-.44-.28-.82-.94-1.15a19.65,19.65,0,0,0-2.53-1c-1-.31-2.11-.66-3.28-1.07a20.16,20.16,0,0,1-3.26-1.42,8.55,8.55,0,0,1-2.46-2,3.75,3.75,0,0,1-.81-2.83,9.44,9.44,0,0,1,2.18-5.27,18.48,18.48,0,0,1,4.8-4.16,22.54,22.54,0,0,1,6.21-2.6A19,19,0,0,1,314,26a7.4,7.4,0,0,1,2.73.7,4.68,4.68,0,0,1,2.53,3.43,8.57,8.57,0,0,1,.1,2.33,14,14,0,0,1-1.11,4.18,21.75,21.75,0,0,1-2.12,3.85,6.12,6.12,0,0,0-1.9-3.8,5.64,5.64,0,0,0-3-1.28,6.81,6.81,0,0,0-3.77.77,5.45,5.45,0,0,0-1.29.91,1.74,1.74,0,0,0-.55,1,1.77,1.77,0,0,0,.69,1.61,7.93,7.93,0,0,0,2,1.15c.78.33,1.65.67,2.58,1a10,10,0,0,1,2.56,1.39,6.72,6.72,0,0,1,1.86,2.11,5.47,5.47,0,0,1,.53,3.25,7.59,7.59,0,0,1-1.92,4.47,13.17,13.17,0,0,1-4.13,3.09,19.73,19.73,0,0,1-5.4,1.71,22.58,22.58,0,0,1-5.78.27,19.09,19.09,0,0,1-4.14-.8,10.89,10.89,0,0,1-3.39-1.7,7.55,7.55,0,0,1-2.24-2.66A6.74,6.74,0,0,1,288.16,49.44Z"/><path class="cls-3" d="M307.36,43.05a12.48,12.48,0,0,1,2.24.4,7.37,7.37,0,0,1,2.17.87,4.45,4.45,0,0,1,1.69,1.75l.13.28a1.83,1.83,0,0,1,.11.33,2.83,2.83,0,0,1,.06.64,3.41,3.41,0,0,1-.28,1.15,8.08,8.08,0,0,0-.29-1.08A1.78,1.78,0,0,0,313,47l-.12-.18c-.06-.07-.11-.14-.17-.2a6.15,6.15,0,0,0-1.54-1.27c-.59-.38-1.19-.64-1.89-1A10.94,10.94,0,0,1,307.36,43.05Z"/><path class="cls-3" d="M308.17,28.85a11.74,11.74,0,0,1,3.65-1,8.51,8.51,0,0,1,3.93.36,3.29,3.29,0,0,1,.93.62,2.75,2.75,0,0,1,.63,1,3.73,3.73,0,0,1,.22,1,5.67,5.67,0,0,1,0,1,8.32,8.32,0,0,1-1.28,3.6,17,17,0,0,0,.38-3.63,4.89,4.89,0,0,0-.32-1.6,1.88,1.88,0,0,0-1-1,5.41,5.41,0,0,0-1.63-.37c-.59-.05-1.18-.12-1.79-.14C310.65,28.7,309.43,28.78,308.17,28.85Z"/></svg>